<svg width="256" height="91" viewBox="0 0 256 91" fill="none" xmlns="http://www.w3.org/2000/svg">
<path d="M108.52 32.392C109.32 32.392 109.976 32.328 110.488 32.2C111.016 32.072 111.536 31.888 112.048 31.648L112.552 33.424C111.992 33.696 111.376 33.896 110.704 34.024C110.048 34.152 109.24 34.216 108.28 34.216C107.288 34.216 106.352 34.048 105.472 33.712C104.592 33.376 103.824 32.88 103.168 32.224C102.528 31.568 102.016 30.76 101.632 29.8C101.264 28.824 101.08 27.704 101.08 26.44C101.08 25.208 101.264 24.112 101.632 23.152C102 22.176 102.504 21.36 103.144 20.704C103.8 20.032 104.576 19.528 105.472 19.192C106.368 18.84 107.344 18.664 108.4 18.664C109.392 18.664 110.208 18.744 110.848 18.904C111.488 19.064 112.08 19.28 112.624 19.552L112.096 21.28C111.792 21.152 111.504 21.04 111.232 20.944C110.976 20.832 110.712 20.744 110.44 20.68C110.184 20.616 109.912 20.568 109.624 20.536C109.352 20.504 109.04 20.488 108.688 20.488C107.984 20.488 107.312 20.6 106.672 20.824C106.048 21.032 105.496 21.376 105.016 21.856C104.552 22.336 104.176 22.96 103.888 23.728C103.616 24.48 103.48 25.392 103.48 26.464C103.48 27.552 103.616 28.472 103.888 29.224C104.16 29.976 104.52 30.584 104.968 31.048C105.432 31.512 105.968 31.856 106.576 32.08C107.184 32.288 107.832 32.392 108.52 32.392ZM125.382 28.24C125.382 29.184 125.238 30.032 124.95 30.784C124.662 31.52 124.262 32.144 123.75 32.656C123.254 33.168 122.67 33.56 121.998 33.832C121.326 34.088 120.598 34.216 119.814 34.216C119.03 34.216 118.302 34.096 117.63 33.856C116.974 33.6 116.398 33.232 115.902 32.752C115.422 32.256 115.038 31.656 114.75 30.952C114.478 30.232 114.342 29.408 114.342 28.48C114.342 27.536 114.486 26.696 114.774 25.96C115.062 25.224 115.454 24.608 115.95 24.112C116.462 23.6 117.054 23.216 117.726 22.96C118.398 22.688 119.126 22.552 119.91 22.552C120.694 22.552 121.414 22.672 122.07 22.912C122.742 23.152 123.318 23.512 123.798 23.992C124.294 24.472 124.678 25.072 124.95 25.792C125.238 26.496 125.382 27.312 125.382 28.24ZM123.174 28.36C123.174 27.608 123.078 26.968 122.886 26.44C122.694 25.912 122.438 25.48 122.118 25.144C121.814 24.808 121.462 24.568 121.062 24.424C120.662 24.264 120.254 24.184 119.838 24.184C119.422 24.184 119.014 24.248 118.614 24.376C118.214 24.504 117.862 24.728 117.558 25.048C117.254 25.368 117.006 25.8 116.814 26.344C116.638 26.872 116.55 27.544 116.55 28.36C116.55 29.112 116.646 29.76 116.838 30.304C117.03 30.832 117.278 31.264 117.582 31.6C117.902 31.936 118.262 32.184 118.662 32.344C119.062 32.504 119.47 32.584 119.886 32.584C120.302 32.584 120.71 32.52 121.11 32.392C121.51 32.248 121.862 32.016 122.166 31.696C122.47 31.36 122.71 30.928 122.886 30.4C123.078 29.856 123.174 29.176 123.174 28.36ZM130.064 34H127.952V22.72H129.584L129.896 24.28C130.424 23.752 130.992 23.336 131.6 23.032C132.208 22.712 132.936 22.552 133.784 22.552C134.584 22.552 135.24 22.72 135.752 23.056C136.264 23.376 136.648 23.824 136.904 24.4C137.464 23.808 138.08 23.352 138.752 23.032C139.424 22.712 140.168 22.552 140.984 22.552C142.136 22.552 143 22.88 143.576 23.536C144.168 24.176 144.464 25.072 144.464 26.224V34H142.352V26.608C142.352 25.856 142.192 25.28 141.872 24.88C141.552 24.48 141.024 24.28 140.288 24.28C139.2 24.28 138.184 24.768 137.24 25.744C137.256 25.824 137.264 25.904 137.264 25.984C137.264 26.064 137.264 26.144 137.264 26.224V34H135.152V26.608C135.152 25.856 134.992 25.28 134.672 24.88C134.352 24.48 133.824 24.28 133.088 24.28C132 24.28 130.992 24.792 130.064 25.816V34ZM152.414 34.216C151.902 34.216 151.406 34.144 150.926 34C150.462 33.856 150.062 33.664 149.726 33.424V39.52H147.638V22.552H149.39L149.702 24.016C150.134 23.616 150.622 23.272 151.166 22.984C151.71 22.696 152.35 22.552 153.086 22.552C154.59 22.552 155.774 23.032 156.638 23.992C157.502 24.952 157.934 26.328 157.934 28.12C157.934 29.176 157.774 30.088 157.454 30.856C157.15 31.624 156.734 32.256 156.206 32.752C155.694 33.248 155.102 33.616 154.43 33.856C153.774 34.096 153.102 34.216 152.414 34.216ZM152.63 24.28C151.958 24.28 151.374 24.448 150.878 24.784C150.382 25.104 149.998 25.432 149.726 25.768V31.792C150.094 32.064 150.486 32.264 150.902 32.392C151.318 32.52 151.734 32.584 152.15 32.584C152.582 32.584 153.014 32.512 153.446 32.368C153.878 32.208 154.262 31.952 154.598 31.6C154.934 31.248 155.206 30.792 155.414 30.232C155.622 29.672 155.726 28.984 155.726 28.168C155.726 26.968 155.47 26.024 154.958 25.336C154.462 24.632 153.686 24.28 152.63 24.28ZM160.604 23.728C160.988 23.536 161.348 23.368 161.684 23.224C162.02 23.064 162.356 22.936 162.692 22.84C163.028 22.744 163.372 22.672 163.724 22.624C164.076 22.576 164.46 22.552 164.876 22.552C165.5 22.552 166.068 22.624 166.58 22.768C167.108 22.896 167.556 23.12 167.924 23.44C168.308 23.76 168.604 24.184 168.812 24.712C169.02 25.224 169.124 25.872 169.124 26.656V34H167.372L167.108 32.752H167.06C166.564 33.28 166.02 33.656 165.428 33.88C164.836 34.104 164.18 34.216 163.46 34.216C162.916 34.216 162.412 34.144 161.948 34C161.5 33.84 161.108 33.624 160.772 33.352C160.436 33.064 160.172 32.72 159.98 32.32C159.804 31.92 159.716 31.472 159.716 30.976C159.716 29.792 160.18 28.896 161.108 28.288C162.052 27.664 163.292 27.352 164.828 27.352H166.988V26.392C166.988 25.576 166.78 25.024 166.364 24.736C165.948 24.432 165.388 24.28 164.684 24.28C164.268 24.28 163.788 24.352 163.244 24.496C162.716 24.624 162.108 24.88 161.42 25.264L160.604 23.728ZM167.012 28.792L165.236 28.84C164.036 28.872 163.18 29.088 162.668 29.488C162.172 29.872 161.924 30.344 161.924 30.904C161.924 31.24 161.98 31.528 162.092 31.768C162.204 31.992 162.348 32.168 162.524 32.296C162.716 32.424 162.932 32.52 163.172 32.584C163.428 32.632 163.692 32.656 163.964 32.656C164.492 32.656 165.028 32.536 165.572 32.296C166.116 32.04 166.596 31.64 167.012 31.096V28.792ZM174.338 34H172.226V22.72H173.882L174.194 24.28C174.754 23.72 175.338 23.296 175.946 23.008C176.57 22.704 177.282 22.552 178.082 22.552C179.234 22.552 180.138 22.88 180.794 23.536C181.45 24.176 181.778 25.072 181.778 26.224V34H179.666V26.536C179.666 25.848 179.482 25.304 179.114 24.904C178.762 24.488 178.218 24.28 177.482 24.28C176.362 24.28 175.314 24.784 174.338 25.792V34ZM183.513 22.72H185.769L188.169 29.176L188.985 31.864H189.033L189.849 29.176L192.033 22.72H194.193L189.849 34.96C189.369 36.32 188.761 37.384 188.025 38.152C187.305 38.92 186.441 39.48 185.433 39.832L184.521 38.152C185.273 37.864 185.937 37.448 186.513 36.904C187.105 36.36 187.561 35.608 187.881 34.648L188.097 34L183.513 22.72ZM203.424 34H201.312V22.72H202.968L203.28 24.28C203.84 23.72 204.424 23.296 205.032 23.008C205.656 22.704 206.368 22.552 207.168 22.552C208.32 22.552 209.224 22.88 209.88 23.536C210.536 24.176 210.864 25.072 210.864 26.224V34H208.752V26.536C208.752 25.848 208.568 25.304 208.2 24.904C207.848 24.488 207.304 24.28 206.568 24.28C205.448 24.28 204.4 24.784 203.424 25.792V34ZM214.135 23.728C214.519 23.536 214.879 23.368 215.215 23.224C215.551 23.064 215.887 22.936 216.223 22.84C216.559 22.744 216.903 22.672 217.255 22.624C217.607 22.576 217.991 22.552 218.407 22.552C219.031 22.552 219.599 22.624 220.111 22.768C220.639 22.896 221.087 23.12 221.455 23.44C221.839 23.76 222.135 24.184 222.343 24.712C222.551 25.224 222.655 25.872 222.655 26.656V34H220.903L220.639 32.752H220.591C220.095 33.28 219.551 33.656 218.959 33.88C218.367 34.104 217.711 34.216 216.991 34.216C216.447 34.216 215.943 34.144 215.479 34C215.031 33.84 214.639 33.624 214.303 33.352C213.967 33.064 213.703 32.72 213.511 32.32C213.335 31.92 213.247 31.472 213.247 30.976C213.247 29.792 213.711 28.896 214.639 28.288C215.583 27.664 216.823 27.352 218.359 27.352H220.519V26.392C220.519 25.576 220.311 25.024 219.895 24.736C219.479 24.432 218.919 24.28 218.215 24.28C217.799 24.28 217.319 24.352 216.775 24.496C216.247 24.624 215.639 24.88 214.951 25.264L214.135 23.728ZM220.543 28.792L218.767 28.84C217.567 28.872 216.711 29.088 216.199 29.488C215.703 29.872 215.455 30.344 215.455 30.904C215.455 31.24 215.511 31.528 215.623 31.768C215.735 31.992 215.879 32.168 216.055 32.296C216.247 32.424 216.463 32.52 216.703 32.584C216.959 32.632 217.223 32.656 217.495 32.656C218.023 32.656 218.559 32.536 219.103 32.296C219.647 32.04 220.127 31.64 220.543 31.096V28.792ZM227.869 34H225.757V22.72H227.389L227.701 24.28C228.229 23.752 228.797 23.336 229.405 23.032C230.013 22.712 230.741 22.552 231.589 22.552C232.389 22.552 233.045 22.72 233.557 23.056C234.069 23.376 234.453 23.824 234.709 24.4C235.269 23.808 235.885 23.352 236.557 23.032C237.229 22.712 237.973 22.552 238.789 22.552C239.941 22.552 240.805 22.88 241.381 23.536C241.973 24.176 242.269 25.072 242.269 26.224V34H240.157V26.608C240.157 25.856 239.997 25.28 239.677 24.88C239.357 24.48 238.829 24.28 238.093 24.28C237.005 24.28 235.989 24.768 235.045 25.744C235.061 25.824 235.069 25.904 235.069 25.984C235.069 26.064 235.069 26.144 235.069 26.224V34H232.957V26.608C232.957 25.856 232.797 25.28 232.477 24.88C232.157 24.48 231.629 24.28 230.893 24.28C229.805 24.28 228.797 24.792 227.869 25.816V34ZM255.138 28.6H247.05V28.696C247.05 29.944 247.386 30.904 248.058 31.576C248.746 32.248 249.674 32.584 250.842 32.584C251.45 32.584 251.986 32.536 252.45 32.44C252.93 32.344 253.45 32.184 254.01 31.96L254.442 33.52C253.978 33.728 253.426 33.896 252.786 34.024C252.162 34.152 251.49 34.216 250.77 34.216C249.954 34.216 249.186 34.104 248.466 33.88C247.762 33.656 247.138 33.312 246.594 32.848C246.05 32.368 245.618 31.76 245.298 31.024C244.994 30.288 244.842 29.408 244.842 28.384C244.842 27.504 244.97 26.704 245.226 25.984C245.498 25.264 245.874 24.656 246.354 24.16C246.834 23.648 247.41 23.256 248.082 22.984C248.77 22.696 249.538 22.552 250.386 22.552C251.106 22.552 251.754 22.672 252.33 22.912C252.922 23.152 253.426 23.488 253.842 23.92C254.258 24.352 254.578 24.872 254.802 25.48C255.026 26.088 255.138 26.76 255.138 27.496V28.6ZM252.954 27.088C252.954 26.672 252.898 26.288 252.786 25.936C252.69 25.568 252.53 25.248 252.306 24.976C252.098 24.704 251.826 24.488 251.49 24.328C251.154 24.168 250.746 24.088 250.266 24.088C249.386 24.088 248.666 24.368 248.106 24.928C247.562 25.488 247.226 26.224 247.098 27.136L252.954 27.088Z" fill="white"/>
<g filter="url(#filter0_dddd_6117_334)">
<path d="M13.3264 42.6524C13.0266 43.364 13.2662 44.1884 13.9007 44.6285L38.3813 61.6072C39.2326 62.1975 40.4113 61.8565 40.8157 60.9028L47.5883 44.9347C47.8904 44.2224 47.6513 43.3959 47.0155 42.9549L22.4998 25.9517C21.6473 25.3604 20.4667 25.7036 20.0639 26.6597L13.3264 42.6524Z" fill="url(#paint0_linear_6117_334)"/>
</g>
<g filter="url(#filter1_dddd_6117_334)">
<path d="M67.9888 43.7843C67.7322 44.3865 67.1409 44.7773 66.4863 44.7773H14.7411C13.573 44.7773 12.7825 43.5868 13.2359 42.5102L20.3351 25.652C20.5902 25.0464 21.1833 24.6526 21.8404 24.6526H73.6697C74.8408 24.6526 75.6313 25.8487 75.1722 26.9261L67.9888 43.7843Z" fill="#FFA274"/>
</g>
<g filter="url(#filter2_dddd_6117_334)">
<path d="M76.8824 19.132C76.6258 19.7342 76.0344 20.125 75.3799 20.125H23.6347C22.4665 20.125 21.6761 18.9344 22.1294 17.8579L29.2287 0.999635C29.4837 0.394046 30.0768 0.000260732 30.7339 0.000260732H82.5632C83.7343 0.000260732 84.5248 1.19641 84.0658 2.27375L76.8824 19.132Z" fill="#FFA274"/>
</g>
<defs>
<filter id="filter0_dddd_6117_334" x="0.358352" y="25.6602" width="60.1993" height="65.128" filterUnits="userSpaceOnUse" color-interpolation-filters="sRGB">
<feFlood flood-opacity="0" result="BackgroundImageFix"/>
<feColorMatrix in="SourceAlpha" type="matrix" values="0 0 0 0 0 0 0 0 0 0 0 0 0 0 0 0 0 0 127 0" result="hardAlpha"/>
<feOffset dy="0.726866"/>
<feGaussianBlur stdDeviation="0.290747"/>
<feColorMatrix type="matrix" values="0 0 0 0 0 0 0 0 0 0 0 0 0 0 0 0 0 0 0.0243888 0"/>
<feBlend mode="normal" in2="BackgroundImageFix" result="effect1_dropShadow_6117_334"/>
<feColorMatrix in="SourceAlpha" type="matrix" values="0 0 0 0 0 0 0 0 0 0 0 0 0 0 0 0 0 0 127 0" result="hardAlpha"/>
<feOffset dy="2.00969"/>
<feGaussianBlur stdDeviation="0.803877"/>
<feColorMatrix type="matrix" values="0 0 0 0 0 0 0 0 0 0 0 0 0 0 0 0 0 0 0.035 0"/>
<feBlend mode="normal" in2="effect1_dropShadow_6117_334" result="effect2_dropShadow_6117_334"/>
<feColorMatrix in="SourceAlpha" type="matrix" values="0 0 0 0 0 0 0 0 0 0 0 0 0 0 0 0 0 0 127 0" result="hardAlpha"/>
<feOffset dy="4.83856"/>
<feGaussianBlur stdDeviation="1.93543"/>
<feColorMatrix type="matrix" values="0 0 0 0 0 0 0 0 0 0 0 0 0 0 0 0 0 0 0.0456112 0"/>
<feBlend mode="normal" in2="effect2_dropShadow_6117_334" result="effect3_dropShadow_6117_334"/>
<feColorMatrix in="SourceAlpha" type="matrix" values="0 0 0 0 0 0 0 0 0 0 0 0 0 0 0 0 0 0 127 0" result="hardAlpha"/>
<feOffset dy="16.0499"/>
<feGaussianBlur stdDeviation="6.41995"/>
<feColorMatrix type="matrix" values="0 0 0 0 0 0 0 0 0 0 0 0 0 0 0 0 0 0 0.07 0"/>
<feBlend mode="normal" in2="effect3_dropShadow_6117_334" result="effect4_dropShadow_6117_334"/>
<feBlend mode="normal" in="SourceGraphic" in2="effect4_dropShadow_6117_334" result="shape"/>
</filter>
<filter id="filter1_dddd_6117_334" x="0.266555" y="24.6523" width="87.878" height="49.0148" filterUnits="userSpaceOnUse" color-interpolation-filters="sRGB">
<feFlood flood-opacity="0" result="BackgroundImageFix"/>
<feColorMatrix in="SourceAlpha" type="matrix" values="0 0 0 0 0 0 0 0 0 0 0 0 0 0 0 0 0 0 127 0" result="hardAlpha"/>
<feOffset dy="0.726866"/>
<feGaussianBlur stdDeviation="0.290747"/>
<feColorMatrix type="matrix" values="0 0 0 0 0 0 0 0 0 0 0 0 0 0 0 0 0 0 0.0243888 0"/>
<feBlend mode="normal" in2="BackgroundImageFix" result="effect1_dropShadow_6117_334"/>
<feColorMatrix in="SourceAlpha" type="matrix" values="0 0 0 0 0 0 0 0 0 0 0 0 0 0 0 0 0 0 127 0" result="hardAlpha"/>
<feOffset dy="2.00969"/>
<feGaussianBlur stdDeviation="0.803877"/>
<feColorMatrix type="matrix" values="0 0 0 0 0 0 0 0 0 0 0 0 0 0 0 0 0 0 0.035 0"/>
<feBlend mode="normal" in2="effect1_dropShadow_6117_334" result="effect2_dropShadow_6117_334"/>
<feColorMatrix in="SourceAlpha" type="matrix" values="0 0 0 0 0 0 0 0 0 0 0 0 0 0 0 0 0 0 127 0" result="hardAlpha"/>
<feOffset dy="4.83856"/>
<feGaussianBlur stdDeviation="1.93543"/>
<feColorMatrix type="matrix" values="0 0 0 0 0 0 0 0 0 0 0 0 0 0 0 0 0 0 0.0456112 0"/>
<feBlend mode="normal" in2="effect2_dropShadow_6117_334" result="effect3_dropShadow_6117_334"/>
<feColorMatrix in="SourceAlpha" type="matrix" values="0 0 0 0 0 0 0 0 0 0 0 0 0 0 0 0 0 0 127 0" result="hardAlpha"/>
<feOffset dy="16.0499"/>
<feGaussianBlur stdDeviation="6.41995"/>
<feColorMatrix type="matrix" values="0 0 0 0 0 0 0 0 0 0 0 0 0 0 0 0 0 0 0.07 0"/>
<feBlend mode="normal" in2="effect3_dropShadow_6117_334" result="effect4_dropShadow_6117_334"/>
<feBlend mode="normal" in="SourceGraphic" in2="effect4_dropShadow_6117_334" result="shape"/>
</filter>
<filter id="filter2_dddd_6117_334" x="9.16011" y="0" width="87.878" height="49.0148" filterUnits="userSpaceOnUse" color-interpolation-filters="sRGB">
<feFlood flood-opacity="0" result="BackgroundImageFix"/>
<feColorMatrix in="SourceAlpha" type="matrix" values="0 0 0 0 0 0 0 0 0 0 0 0 0 0 0 0 0 0 127 0" result="hardAlpha"/>
<feOffset dy="0.726866"/>
<feGaussianBlur stdDeviation="0.290747"/>
<feColorMatrix type="matrix" values="0 0 0 0 0 0 0 0 0 0 0 0 0 0 0 0 0 0 0.0243888 0"/>
<feBlend mode="normal" in2="BackgroundImageFix" result="effect1_dropShadow_6117_334"/>
<feColorMatrix in="SourceAlpha" type="matrix" values="0 0 0 0 0 0 0 0 0 0 0 0 0 0 0 0 0 0 127 0" result="hardAlpha"/>
<feOffset dy="2.00969"/>
<feGaussianBlur stdDeviation="0.803877"/>
<feColorMatrix type="matrix" values="0 0 0 0 0 0 0 0 0 0 0 0 0 0 0 0 0 0 0.035 0"/>
<feBlend mode="normal" in2="effect1_dropShadow_6117_334" result="effect2_dropShadow_6117_334"/>
<feColorMatrix in="SourceAlpha" type="matrix" values="0 0 0 0 0 0 0 0 0 0 0 0 0 0 0 0 0 0 127 0" result="hardAlpha"/>
<feOffset dy="4.83856"/>
<feGaussianBlur stdDeviation="1.93543"/>
<feColorMatrix type="matrix" values="0 0 0 0 0 0 0 0 0 0 0 0 0 0 0 0 0 0 0.0456112 0"/>
<feBlend mode="normal" in2="effect2_dropShadow_6117_334" result="effect3_dropShadow_6117_334"/>
<feColorMatrix in="SourceAlpha" type="matrix" values="0 0 0 0 0 0 0 0 0 0 0 0 0 0 0 0 0 0 127 0" result="hardAlpha"/>
<feOffset dy="16.0499"/>
<feGaussianBlur stdDeviation="6.41995"/>
<feColorMatrix type="matrix" values="0 0 0 0 0 0 0 0 0 0 0 0 0 0 0 0 0 0 0.07 0"/>
<feBlend mode="normal" in2="effect3_dropShadow_6117_334" result="effect4_dropShadow_6117_334"/>
<feBlend mode="normal" in="SourceGraphic" in2="effect4_dropShadow_6117_334" result="shape"/>
</filter>
<linearGradient id="paint0_linear_6117_334" x1="39.2972" y1="60.9894" x2="37.4861" y2="30.021" gradientUnits="userSpaceOnUse">
<stop stop-color="#FDFDFD"/>
<stop offset="1" stop-color="#FDFDFD" stop-opacity="0"/>
</linearGradient>
</defs>
</svg>
