<svg width="775" height="801" viewBox="0 0 775 801" fill="none" xmlns="http://www.w3.org/2000/svg">
<g id="Group 27608">
<g id="Group 27607">
<g id="Group 27606">
<g id="Group 27605">
<g id="Group 27604">
<path id="blob=2" fill-rule="evenodd" clip-rule="evenodd" d="M395.333 3.52542C504.496 -16.8532 615.004 53.8624 678.71 144.82C738.411 230.061 741.875 344.765 701.516 440.689C667.769 520.901 572.556 538.431 495.83 579.489C411.235 624.758 329.844 727.922 243.696 685.683C157.603 643.471 178.581 517.19 173.482 421.441C169.821 352.68 187.176 291.374 219.463 230.553C266.685 141.597 296.33 22.0075 395.333 3.52542Z" fill="#4C00BC" fill-opacity="0.2"/>
<path id="blob-1" fill-rule="evenodd" clip-rule="evenodd" d="M247.509 27.0218C335.366 25.8399 418.546 72.7436 474.105 140.814C525.007 203.18 520.816 287.035 525.33 367.41C530.279 455.537 556.402 552.203 501.068 620.97C442.494 693.764 340.36 723.089 247.509 712.675C162.194 703.106 93.9333 640.429 45.0905 569.828C4.54263 511.217 11.7073 438.614 8.64998 367.41C5.35979 290.783 -17.1279 209.612 26.9281 146.83C76.8919 75.6281 160.533 28.1919 247.509 27.0218Z" fill="#29016E"/>
<path id="blob-3" fill-rule="evenodd" clip-rule="evenodd" d="M424.741 215.011C556.744 215.536 703.504 239.03 751.365 362.052C806.701 504.285 762.544 673.563 636.774 760.017C518.99 840.982 368.194 789.171 252.9 704.697C139.415 621.547 43.447 492.175 90.0318 359.425C134.515 232.663 290.402 214.477 424.741 215.011Z" fill="#FFA274"/>
<g id="Rectangle 4.3" filter="url(#filter0_d_6121_1299)">
<path d="M515 189.821C515 189.368 515.368 189 515.821 189V189C517.181 189 518.284 190.103 518.284 191.463V259.608C518.284 260.968 517.181 262.071 515.821 262.071V262.071C515.368 262.071 515 261.703 515 261.25V189.821Z" fill="#606060"/>
</g>
<path id="Rectangle 896" d="M186 139C186 137.343 187.343 136 189 136H189.105C189.657 136 190.105 136.448 190.105 137V160.452C190.105 161.004 189.657 161.452 189.105 161.452H189C187.343 161.452 186 160.108 186 158.452V139Z" fill="#606060"/>
<path id="Rectangle 4.1" d="M186 182.463C186 181.103 187.103 180 188.463 180H189.284C189.738 180 190.105 180.368 190.105 180.821V223.514C190.105 223.967 189.738 224.335 189.284 224.335H188.463C187.103 224.335 186 223.232 186 221.872V182.463Z" fill="#606060"/>
<path id="Rectangle 4.1_2" d="M186 242.463C186 241.103 187.103 240 188.463 240H189.284C189.738 240 190.105 240.368 190.105 240.821V283.514C190.105 283.967 189.738 284.335 189.284 284.335H188.463C187.103 284.335 186 283.232 186 281.872V242.463Z" fill="#606060"/>
<circle id="Ellipse 27" cx="386" cy="110" r="4" fill="#C4C4C4"/>
<g id="fig9-paybank" clip-path="url(#clip0_6121_1299)">
<rect id="Rectangle 428" x="189" y="75" width="328" height="686" rx="48" fill="#4B4E46"/>
<rect id="Rectangle 430" x="336" y="78" width="36" height="3" rx="1.5" fill="#C0C0C0"/>
<g id="frame-iphone-5">
<g clip-path="url(#clip1_6121_1299)">
<rect x="200" y="84" width="308.211" height="667" rx="36" fill="#03002F"/>
<path id="Vector 1944" opacity="0.3" d="M649.672 79.2583L501.099 585.831" stroke="#A9C96B" stroke-width="0.347246"/>
<g id="Group 27540">
<path id="Vector 1943" opacity="0.3" d="M312.221 11.2939L161.276 517.866" stroke="#A9C96B" stroke-width="0.347246"/>
<path id="Vector 1946" opacity="0.3" d="M597.513 574.767L61.7002 208.075" stroke="#A9C96B" stroke-width="0.347246"/>
<path id="Vector 1948" opacity="0.3" d="M224.499 332.149L493.196 643.521" stroke="#A9C96B" stroke-width="0.347246"/>
</g>
<g id="Group 27541">
<path id="Vector 1945" opacity="0.3" d="M526.3 754.806L-110.92 318.714" stroke="#A9C96B" stroke-width="0.347246"/>
<path id="Vector 1946_2" opacity="0.3" d="M453.932 988.829L-183.288 552.737" stroke="#A9C96B" stroke-width="0.347246"/>
<path id="Vector 1947" opacity="0.3" d="M41.3369 873.227L551.677 428.677" stroke="#A9C96B" stroke-width="0.347246"/>
<path id="Vector 1948_2" opacity="0.3" d="M10.3213 700.294L329.871 1070.6" stroke="#A9C96B" stroke-width="0.347246"/>
</g>
<path id="Vector 1949" opacity="0.3" d="M487.663 95.8545L650.462 285.523" stroke="#A9C96B" stroke-width="0.347246"/>
<g id="Rectangle 2085" filter="url(#filter1_f_6121_1299)">
<rect x="231.611" y="674.342" width="244.988" height="31.6114" rx="9.48341" fill="url(#paint0_linear_6121_1299)" fill-opacity="0.4"/>
</g>
<path id="Seja bem-vindo a ag&#195;&#170;ncia do futuro" d="M231.359 329.37C229.731 329.37 228.091 329.197 226.438 328.852C224.81 328.507 223.429 328.038 222.294 327.446L223.108 324.782C223.873 325.152 224.724 325.485 225.661 325.781C226.623 326.052 227.61 326.274 228.621 326.447C229.632 326.595 230.607 326.669 231.544 326.669C233.715 326.669 235.38 326.25 236.539 325.411C237.723 324.572 238.315 323.388 238.315 321.859C238.315 320.996 238.13 320.28 237.76 319.713C237.415 319.121 236.909 318.64 236.243 318.27C235.577 317.875 234.775 317.53 233.838 317.234C232.925 316.938 231.926 316.642 230.841 316.346C229.657 316.025 228.559 315.668 227.548 315.273C226.537 314.854 225.636 314.36 224.847 313.793C224.082 313.201 223.478 312.498 223.034 311.684C222.615 310.845 222.405 309.846 222.405 308.687C222.405 306.418 223.256 304.679 224.958 303.47C226.66 302.237 229.053 301.62 232.136 301.62C233.715 301.62 235.281 301.78 236.835 302.101C238.414 302.397 239.733 302.804 240.794 303.322L239.98 305.986C238.944 305.493 237.723 305.098 236.317 304.802C234.911 304.481 233.505 304.321 232.099 304.321C229.953 304.321 228.313 304.703 227.178 305.468C226.043 306.233 225.476 307.318 225.476 308.724C225.476 309.538 225.649 310.216 225.994 310.759C226.339 311.302 226.82 311.758 227.437 312.128C228.078 312.498 228.818 312.831 229.657 313.127C230.52 313.398 231.482 313.682 232.543 313.978C233.776 314.323 234.923 314.706 235.984 315.125C237.069 315.52 238.007 316.013 238.796 316.605C239.61 317.197 240.251 317.925 240.72 318.788C241.189 319.627 241.423 320.663 241.423 321.896C241.423 324.239 240.535 326.077 238.759 327.409C237.008 328.716 234.541 329.37 231.359 329.37ZM254.96 329.37C251.753 329.37 249.274 328.507 247.523 326.78C245.796 325.053 244.933 322.587 244.933 319.38C244.933 316.272 245.734 313.83 247.338 312.054C248.966 310.278 251.21 309.39 254.072 309.39C256.81 309.39 258.906 310.229 260.362 311.906C261.817 313.559 262.545 315.939 262.545 319.047C262.545 319.294 262.545 319.553 262.545 319.824C262.545 320.095 262.532 320.33 262.508 320.527H246.524V318.159H260.362L259.807 318.936C259.807 316.543 259.326 314.755 258.364 313.571C257.402 312.387 255.971 311.795 254.072 311.795C252.049 311.795 250.495 312.436 249.41 313.719C248.324 314.977 247.782 316.778 247.782 319.121V319.861C247.782 322.204 248.374 323.968 249.558 325.152C250.766 326.311 252.53 326.891 254.849 326.891C255.909 326.891 257.007 326.78 258.142 326.558C259.301 326.336 260.337 326.04 261.25 325.67L261.694 328.038C260.756 328.457 259.696 328.778 258.512 329C257.328 329.247 256.144 329.37 254.96 329.37ZM260.827 334.587C262.406 334.414 263.701 334.18 264.712 333.884C265.748 333.588 266.537 333.169 267.08 332.626C267.647 332.108 268.042 331.405 268.264 330.517C268.486 329.654 268.597 328.568 268.597 327.261V309.76H271.557V327.261C271.557 328.988 271.384 330.443 271.039 331.627C270.718 332.811 270.176 333.761 269.411 334.476C268.646 335.216 267.598 335.796 266.266 336.215C264.934 336.634 263.257 336.943 261.234 337.14L260.827 334.587ZM268.338 305.431V301.99H271.816V305.431H268.338ZM282.832 329.37C280.883 329.37 279.342 328.852 278.207 327.816C277.072 326.755 276.505 325.337 276.505 323.561C276.505 321.341 277.405 319.639 279.206 318.455C281.007 317.246 283.584 316.642 286.939 316.642H290.01C290.01 315.409 289.862 314.447 289.566 313.756C289.27 313.065 288.777 312.584 288.086 312.313C287.395 312.017 286.433 311.869 285.2 311.869C283.967 311.869 282.709 311.992 281.426 312.239C280.168 312.486 278.959 312.856 277.8 313.349L277.282 310.981C278.515 310.463 279.835 310.068 281.241 309.797C282.672 309.526 284.115 309.39 285.57 309.39C287.42 309.39 288.875 309.624 289.936 310.093C290.997 310.562 291.761 311.351 292.23 312.461C292.699 313.571 292.933 315.051 292.933 316.901V329H290.121L290.084 326.373H290.01C289.369 327.261 288.37 327.989 287.013 328.556C285.681 329.099 284.287 329.37 282.832 329.37ZM283.757 326.965C284.916 326.965 285.965 326.743 286.902 326.299C287.864 325.855 288.616 325.263 289.159 324.523C289.726 323.758 290.01 322.92 290.01 322.007V318.899H287.309C284.694 318.899 282.721 319.281 281.389 320.046C280.057 320.786 279.391 321.871 279.391 323.302C279.391 324.437 279.773 325.337 280.538 326.003C281.303 326.644 282.376 326.965 283.757 326.965ZM318.796 329.37C317.39 329.37 316.083 329.111 314.874 328.593C313.69 328.05 312.753 327.323 312.062 326.41H311.988V329H309.176V301.99H312.099V312.35H312.173C312.839 311.413 313.752 310.685 314.911 310.167C316.095 309.649 317.39 309.39 318.796 309.39C321.362 309.39 323.36 310.278 324.79 312.054C326.221 313.805 326.936 316.247 326.936 319.38C326.936 322.513 326.221 324.967 324.79 326.743C323.36 328.494 321.362 329.37 318.796 329.37ZM318.167 326.891C320.067 326.891 321.522 326.25 322.533 324.967C323.569 323.66 324.087 321.797 324.087 319.38C324.087 316.963 323.569 315.113 322.533 313.83C321.522 312.523 320.067 311.869 318.167 311.869C317.008 311.869 315.972 312.116 315.059 312.609C314.147 313.078 313.419 313.731 312.876 314.57C312.358 315.384 312.099 316.346 312.099 317.456V321.304C312.099 322.389 312.358 323.351 312.876 324.19C313.419 325.029 314.147 325.695 315.059 326.188C315.972 326.657 317.008 326.891 318.167 326.891ZM340.342 329.37C337.135 329.37 334.656 328.507 332.905 326.78C331.178 325.053 330.315 322.587 330.315 319.38C330.315 316.272 331.116 313.83 332.72 312.054C334.348 310.278 336.592 309.39 339.454 309.39C342.192 309.39 344.288 310.229 345.744 311.906C347.199 313.559 347.927 315.939 347.927 319.047C347.927 319.294 347.927 319.553 347.927 319.824C347.927 320.095 347.914 320.33 347.89 320.527H331.906V318.159H345.744L345.189 318.936C345.189 316.543 344.708 314.755 343.746 313.571C342.784 312.387 341.353 311.795 339.454 311.795C337.431 311.795 335.877 312.436 334.792 313.719C333.706 314.977 333.164 316.778 333.164 319.121V319.861C333.164 322.204 333.756 323.968 334.94 325.152C336.148 326.311 337.912 326.891 340.231 326.891C341.291 326.891 342.389 326.78 343.524 326.558C344.683 326.336 345.719 326.04 346.632 325.67L347.076 328.038C346.138 328.457 345.078 328.778 343.894 329C342.71 329.247 341.526 329.37 340.342 329.37ZM352.536 329V309.76H355.311V312.35H355.385C356.051 311.462 356.902 310.747 357.938 310.204C358.998 309.661 360.207 309.39 361.564 309.39C362.92 309.39 364.055 309.649 364.968 310.167C365.88 310.66 366.497 311.388 366.818 312.35H366.892C367.607 311.363 368.483 310.623 369.519 310.13C370.579 309.637 371.8 309.39 373.182 309.39C375.254 309.39 376.746 309.97 377.659 311.129C378.596 312.264 379.065 314.089 379.065 316.605V329H376.216V317.234C376.216 315.335 375.907 313.966 375.291 313.127C374.699 312.288 373.724 311.869 372.368 311.869C370.838 311.869 369.605 312.375 368.668 313.386C367.73 314.397 367.262 315.742 367.262 317.419V329H364.376V316.42C364.376 314.94 364.043 313.818 363.377 313.053C362.711 312.264 361.761 311.869 360.528 311.869C359.566 311.869 358.69 312.128 357.901 312.646C357.136 313.164 356.519 313.855 356.051 314.718C355.607 315.557 355.385 316.457 355.385 317.419V329H352.536ZM383.843 319.639V316.901H394.832V319.639H383.843ZM404.746 329L397.494 309.76H400.676L406.781 326.854H406.855L412.96 309.76H416.142L408.89 329H404.746ZM420.004 305.431V301.99H423.445V305.431H420.004ZM420.263 329V309.76H423.223V329H420.263ZM430.004 329V309.76H432.853V312.35H432.927C433.667 311.388 434.629 310.66 435.813 310.167C436.997 309.649 438.342 309.39 439.846 309.39C442.165 309.39 443.879 310.019 444.989 311.277C446.099 312.535 446.654 314.496 446.654 317.16V329H443.768V317.678C443.768 315.68 443.386 314.212 442.621 313.275C441.881 312.338 440.71 311.869 439.106 311.869C437.898 311.869 436.825 312.116 435.887 312.609C434.975 313.078 434.247 313.731 433.704 314.57C433.186 315.384 432.927 316.334 432.927 317.419V329H430.004ZM458.922 329.37C456.332 329.37 454.31 328.494 452.854 326.743C451.424 324.967 450.708 322.513 450.708 319.38C450.708 316.247 451.424 313.805 452.854 312.054C454.31 310.278 456.332 309.39 458.922 309.39C460.304 309.39 461.586 309.649 462.77 310.167C463.954 310.685 464.867 311.413 465.508 312.35H465.582V301.99H468.468V329H465.73L465.693 326.41H465.619C464.953 327.323 464.016 328.05 462.807 328.593C461.599 329.111 460.304 329.37 458.922 329.37ZM459.514 326.891C460.698 326.891 461.734 326.657 462.622 326.188C463.535 325.695 464.25 325.029 464.768 324.19C465.311 323.351 465.582 322.389 465.582 321.304V317.456C465.582 316.371 465.311 315.409 464.768 314.57C464.25 313.731 463.535 313.078 462.622 312.609C461.734 312.116 460.698 311.869 459.514 311.869C457.664 311.869 456.209 312.523 455.148 313.83C454.112 315.113 453.594 316.963 453.594 319.38C453.594 321.797 454.112 323.66 455.148 324.967C456.209 326.25 457.664 326.891 459.514 326.891ZM482.581 329.37C479.621 329.37 477.315 328.494 475.662 326.743C474.034 324.992 473.22 322.537 473.22 319.38C473.22 316.223 474.034 313.768 475.662 312.017C477.315 310.266 479.621 309.39 482.581 309.39C485.541 309.39 487.835 310.266 489.463 312.017C491.116 313.768 491.942 316.223 491.942 319.38C491.942 322.537 491.116 324.992 489.463 326.743C487.835 328.494 485.541 329.37 482.581 329.37ZM482.581 326.891C484.653 326.891 486.244 326.25 487.354 324.967C488.489 323.66 489.056 321.797 489.056 319.38C489.056 316.963 488.489 315.113 487.354 313.83C486.244 312.523 484.653 311.869 482.581 311.869C480.534 311.869 478.943 312.523 477.808 313.83C476.673 315.113 476.106 316.963 476.106 319.38C476.106 321.797 476.673 323.66 477.808 324.967C478.943 326.25 480.534 326.891 482.581 326.891ZM227.585 373.37C225.636 373.37 224.095 372.852 222.96 371.816C221.825 370.755 221.258 369.337 221.258 367.561C221.258 365.341 222.158 363.639 223.959 362.455C225.76 361.246 228.337 360.642 231.692 360.642H234.763C234.763 359.409 234.615 358.447 234.319 357.756C234.023 357.065 233.53 356.584 232.839 356.313C232.148 356.017 231.186 355.869 229.953 355.869C228.72 355.869 227.462 355.992 226.179 356.239C224.921 356.486 223.712 356.856 222.553 357.349L222.035 354.981C223.268 354.463 224.588 354.068 225.994 353.797C227.425 353.526 228.868 353.39 230.323 353.39C232.173 353.39 233.628 353.624 234.689 354.093C235.75 354.562 236.514 355.351 236.983 356.461C237.452 357.571 237.686 359.051 237.686 360.901V373H234.874L234.837 370.373H234.763C234.122 371.261 233.123 371.989 231.766 372.556C230.434 373.099 229.04 373.37 227.585 373.37ZM228.51 370.965C229.669 370.965 230.718 370.743 231.655 370.299C232.617 369.855 233.369 369.263 233.912 368.523C234.479 367.758 234.763 366.92 234.763 366.007V362.899H232.062C229.447 362.899 227.474 363.281 226.142 364.046C224.81 364.786 224.144 365.871 224.144 367.302C224.144 368.437 224.526 369.337 225.291 370.003C226.056 370.644 227.129 370.965 228.51 370.965ZM258.406 373.37C256.458 373.37 254.916 372.852 253.781 371.816C252.647 370.755 252.079 369.337 252.079 367.561C252.079 365.341 252.98 363.639 254.78 362.455C256.581 361.246 259.159 360.642 262.513 360.642H265.584C265.584 359.409 265.436 358.447 265.14 357.756C264.844 357.065 264.351 356.584 263.66 356.313C262.97 356.017 262.008 355.869 260.774 355.869C259.541 355.869 258.283 355.992 257 356.239C255.742 356.486 254.534 356.856 253.374 357.349L252.856 354.981C254.09 354.463 255.409 354.068 256.815 353.797C258.246 353.526 259.689 353.39 261.144 353.39C262.994 353.39 264.45 353.624 265.51 354.093C266.571 354.562 267.336 355.351 267.804 356.461C268.273 357.571 268.507 359.051 268.507 360.901V373H265.695L265.658 370.373H265.584C264.943 371.261 263.944 371.989 262.587 372.556C261.255 373.099 259.862 373.37 258.406 373.37ZM259.331 370.965C260.491 370.965 261.539 370.743 262.476 370.299C263.438 369.855 264.191 369.263 264.733 368.523C265.301 367.758 265.584 366.92 265.584 366.007V362.899H262.883C260.269 362.899 258.295 363.281 256.963 364.046C255.631 364.786 254.965 365.871 254.965 367.302C254.965 368.437 255.348 369.337 256.112 370.003C256.877 370.644 257.95 370.965 259.331 370.965ZM280.899 381.14C279.443 381.14 278.062 380.992 276.755 380.696C275.472 380.4 274.362 379.968 273.425 379.401L273.943 377.033C274.831 377.551 275.854 377.946 277.014 378.217C278.198 378.513 279.406 378.661 280.64 378.661C283.082 378.661 284.821 378.069 285.857 376.885C286.917 375.726 287.448 373.814 287.448 371.15V369.448H287.374C286.708 370.311 285.795 371.002 284.636 371.52C283.476 372.013 282.194 372.26 280.788 372.26C278.222 372.26 276.212 371.434 274.757 369.781C273.301 368.104 272.574 365.785 272.574 362.825C272.574 359.865 273.301 357.559 274.757 355.906C276.212 354.229 278.222 353.39 280.788 353.39C282.194 353.39 283.489 353.649 284.673 354.167C285.857 354.66 286.782 355.339 287.448 356.202H287.522L287.559 353.76H290.334V371.15C290.334 374.603 289.569 377.132 288.04 378.735C286.535 380.338 284.155 381.14 280.899 381.14ZM281.417 369.781C282.576 369.781 283.6 369.571 284.488 369.152C285.4 368.708 286.116 368.116 286.634 367.376C287.176 366.611 287.448 365.736 287.448 364.749V360.901C287.448 359.939 287.176 359.076 286.634 358.311C286.116 357.546 285.4 356.954 284.488 356.535C283.6 356.091 282.576 355.869 281.417 355.869C279.542 355.869 278.074 356.473 277.014 357.682C275.978 358.891 275.46 360.605 275.46 362.825C275.46 365.045 275.978 366.759 277.014 367.968C278.074 369.177 279.542 369.781 281.417 369.781ZM305.112 373.37C301.905 373.37 299.426 372.507 297.675 370.78C295.948 369.053 295.085 366.587 295.085 363.38C295.085 360.272 295.887 357.83 297.49 356.054C299.118 354.278 301.363 353.39 304.224 353.39C306.962 353.39 309.059 354.229 310.514 355.906C311.969 357.559 312.697 359.939 312.697 363.047C312.697 363.294 312.697 363.553 312.697 363.824C312.697 364.095 312.685 364.33 312.66 364.527H296.676V362.159H310.514L309.959 362.936C309.959 360.543 309.478 358.755 308.516 357.571C307.554 356.387 306.123 355.795 304.224 355.795C302.201 355.795 300.647 356.436 299.562 357.719C298.477 358.977 297.934 360.778 297.934 363.121V363.861C297.934 366.204 298.526 367.968 299.71 369.152C300.919 370.311 302.682 370.891 305.001 370.891C306.062 370.891 307.159 370.78 308.294 370.558C309.453 370.336 310.489 370.04 311.402 369.67L311.846 372.038C310.909 372.457 309.848 372.778 308.664 373C307.48 373.247 306.296 373.37 305.112 373.37ZM296.38 351.91L302.115 343.77H305.778L311.55 351.91H308.035L304.002 345.916H303.928L299.895 351.91H296.38ZM317.306 373V353.76H320.155V356.35H320.229C320.969 355.388 321.931 354.66 323.115 354.167C324.299 353.649 325.644 353.39 327.148 353.39C329.467 353.39 331.181 354.019 332.291 355.277C333.401 356.535 333.956 358.496 333.956 361.16V373H331.07V361.678C331.07 359.68 330.688 358.212 329.923 357.275C329.183 356.338 328.012 355.869 326.408 355.869C325.2 355.869 324.127 356.116 323.189 356.609C322.277 357.078 321.549 357.731 321.006 358.57C320.488 359.384 320.229 360.334 320.229 361.419V373H317.306ZM348.111 373.37C346.014 373.37 344.214 372.975 342.709 372.186C341.204 371.372 340.045 370.225 339.231 368.745C338.442 367.24 338.047 365.452 338.047 363.38C338.047 361.308 338.442 359.532 339.231 358.052C340.045 356.547 341.204 355.4 342.709 354.611C344.214 353.797 346.014 353.39 348.111 353.39C349.147 353.39 350.134 353.501 351.071 353.723C352.008 353.92 352.921 354.253 353.809 354.722L353.254 357.09C352.415 356.671 351.589 356.362 350.775 356.165C349.961 355.968 349.135 355.869 348.296 355.869C346.002 355.869 344.214 356.535 342.931 357.867C341.648 359.174 341.007 361.012 341.007 363.38C341.007 365.723 341.648 367.561 342.931 368.893C344.214 370.225 346.002 370.891 348.296 370.891C349.135 370.891 349.961 370.792 350.775 370.595C351.589 370.398 352.415 370.089 353.254 369.67L353.809 372.038C352.921 372.482 352.008 372.815 351.071 373.037C350.134 373.259 349.147 373.37 348.111 373.37ZM359.77 349.431V345.99H363.211V349.431H359.77ZM360.029 373V353.76H362.989V373H360.029ZM374.248 373.37C372.299 373.37 370.758 372.852 369.623 371.816C368.488 370.755 367.921 369.337 367.921 367.561C367.921 365.341 368.821 363.639 370.622 362.455C372.423 361.246 375 360.642 378.355 360.642H381.426C381.426 359.409 381.278 358.447 380.982 357.756C380.686 357.065 380.193 356.584 379.502 356.313C378.811 356.017 377.849 355.869 376.616 355.869C375.383 355.869 374.125 355.992 372.842 356.239C371.584 356.486 370.375 356.856 369.216 357.349L368.698 354.981C369.931 354.463 371.251 354.068 372.657 353.797C374.088 353.526 375.531 353.39 376.986 353.39C378.836 353.39 380.291 353.624 381.352 354.093C382.413 354.562 383.177 355.351 383.646 356.461C384.115 357.571 384.349 359.051 384.349 360.901V373H381.537L381.5 370.373H381.426C380.785 371.261 379.786 371.989 378.429 372.556C377.097 373.099 375.703 373.37 374.248 373.37ZM375.173 370.965C376.332 370.965 377.381 370.743 378.318 370.299C379.28 369.855 380.032 369.263 380.575 368.523C381.142 367.758 381.426 366.92 381.426 366.007V362.899H378.725C376.11 362.899 374.137 363.281 372.805 364.046C371.473 364.786 370.807 365.871 370.807 367.302C370.807 368.437 371.189 369.337 371.954 370.003C372.719 370.644 373.792 370.965 375.173 370.965ZM407.252 373.37C404.662 373.37 402.64 372.494 401.184 370.743C399.754 368.967 399.038 366.513 399.038 363.38C399.038 360.247 399.754 357.805 401.184 356.054C402.64 354.278 404.662 353.39 407.252 353.39C408.634 353.39 409.916 353.649 411.1 354.167C412.284 354.685 413.197 355.413 413.838 356.35H413.912V345.99H416.798V373H414.06L414.023 370.41H413.949C413.283 371.323 412.346 372.05 411.137 372.593C409.929 373.111 408.634 373.37 407.252 373.37ZM407.844 370.891C409.028 370.891 410.064 370.657 410.952 370.188C411.865 369.695 412.58 369.029 413.098 368.19C413.641 367.351 413.912 366.389 413.912 365.304V361.456C413.912 360.371 413.641 359.409 413.098 358.57C412.58 357.731 411.865 357.078 410.952 356.609C410.064 356.116 409.028 355.869 407.844 355.869C405.994 355.869 404.539 356.523 403.478 357.83C402.442 359.113 401.924 360.963 401.924 363.38C401.924 365.797 402.442 367.66 403.478 368.967C404.539 370.25 405.994 370.891 407.844 370.891ZM430.911 373.37C427.951 373.37 425.645 372.494 423.992 370.743C422.364 368.992 421.55 366.537 421.55 363.38C421.55 360.223 422.364 357.768 423.992 356.017C425.645 354.266 427.951 353.39 430.911 353.39C433.871 353.39 436.165 354.266 437.793 356.017C439.446 357.768 440.272 360.223 440.272 363.38C440.272 366.537 439.446 368.992 437.793 370.743C436.165 372.494 433.871 373.37 430.911 373.37ZM430.911 370.891C432.983 370.891 434.574 370.25 435.684 368.967C436.819 367.66 437.386 365.797 437.386 363.38C437.386 360.963 436.819 359.113 435.684 357.83C434.574 356.523 432.983 355.869 430.911 355.869C428.864 355.869 427.273 356.523 426.138 357.83C425.003 359.113 424.436 360.963 424.436 363.38C424.436 365.797 425.003 367.66 426.138 368.967C427.273 370.25 428.864 370.891 430.911 370.891ZM226.364 417V400.979H220.925V398.5H226.364V394.911C226.364 392.765 226.882 391.162 227.918 390.101C228.954 389.04 230.52 388.51 232.617 388.51C233.234 388.51 233.838 388.559 234.43 388.658C235.022 388.757 235.577 388.892 236.095 389.065L235.688 391.507C234.8 391.211 233.912 391.063 233.024 391.063C231.692 391.063 230.73 391.371 230.138 391.988C229.571 392.605 229.287 393.653 229.287 395.133V398.5H236.021V400.979H229.287V417H226.364ZM246.231 417.37C243.937 417.37 242.247 416.741 241.162 415.483C240.101 414.2 239.571 412.239 239.571 409.6V397.76H242.494V409.082C242.494 411.08 242.851 412.548 243.567 413.485C244.282 414.422 245.404 414.891 246.934 414.891C248.118 414.891 249.154 414.657 250.042 414.188C250.954 413.695 251.657 413.041 252.151 412.227C252.669 411.388 252.928 410.426 252.928 409.341V397.76H255.851V417H253.039L253.002 414.41H252.928C252.212 415.372 251.287 416.112 250.153 416.63C249.018 417.123 247.711 417.37 246.231 417.37ZM270.532 417.37C268.436 417.37 266.919 416.926 265.981 416.038C265.069 415.125 264.612 413.633 264.612 411.561V400.239H259.913V397.76H264.612V391.47H267.535V397.76H274.676V400.239H267.535V410.821C267.535 412.301 267.794 413.337 268.312 413.929C268.83 414.496 269.755 414.78 271.087 414.78C271.679 414.78 272.247 414.731 272.789 414.632C273.357 414.533 273.887 414.398 274.38 414.225L274.713 416.741C273.973 416.963 273.258 417.123 272.567 417.222C271.901 417.321 271.223 417.37 270.532 417.37ZM285.688 417.37C283.394 417.37 281.704 416.741 280.619 415.483C279.558 414.2 279.028 412.239 279.028 409.6V397.76H281.951V409.082C281.951 411.08 282.308 412.548 283.024 413.485C283.739 414.422 284.861 414.891 286.391 414.891C287.575 414.891 288.611 414.657 289.499 414.188C290.411 413.695 291.114 413.041 291.608 412.227C292.126 411.388 292.385 410.426 292.385 409.341V397.76H295.308V417H292.496L292.459 414.41H292.385C291.669 415.372 290.744 416.112 289.61 416.63C288.475 417.123 287.168 417.37 285.688 417.37ZM301.516 417V397.76H304.328L304.365 401.793H304.439C305.007 400.88 305.734 400.103 306.622 399.462C307.51 398.796 308.522 398.29 309.656 397.945C310.791 397.575 311.987 397.39 313.245 397.39V399.98C311.617 399.98 310.137 400.313 308.805 400.979C307.473 401.645 306.413 402.533 305.623 403.643C304.859 404.753 304.476 405.999 304.476 407.38V417H301.516ZM323.416 417.37C320.456 417.37 318.15 416.494 316.497 414.743C314.869 412.992 314.055 410.537 314.055 407.38C314.055 404.223 314.869 401.768 316.497 400.017C318.15 398.266 320.456 397.39 323.416 397.39C326.376 397.39 328.67 398.266 330.298 400.017C331.951 401.768 332.777 404.223 332.777 407.38C332.777 410.537 331.951 412.992 330.298 414.743C328.67 416.494 326.376 417.37 323.416 417.37ZM323.416 414.891C325.488 414.891 327.079 414.25 328.189 412.967C329.324 411.66 329.891 409.797 329.891 407.38C329.891 404.963 329.324 403.113 328.189 401.83C327.079 400.523 325.488 399.869 323.416 399.869C321.369 399.869 319.778 400.523 318.643 401.83C317.508 403.113 316.941 404.963 316.941 407.38C316.941 409.797 317.508 411.66 318.643 412.967C319.778 414.25 321.369 414.891 323.416 414.891Z" fill="#FBFFF5"/>
<rect id="Rectangle 2084" x="220" y="448" width="259.213" height="46" rx="8" fill="#FFA274"/>
<path id="Junte-se a mais de 2000 mil" d="M267.39 475.126C266.85 475.126 266.336 475.076 265.847 474.975C265.366 474.865 264.911 474.705 264.481 474.494L264.76 473.204C265.232 473.424 265.67 473.584 266.075 473.685C266.479 473.786 266.892 473.837 267.314 473.837C267.836 473.837 268.258 473.761 268.578 473.609C268.907 473.457 269.143 473.217 269.286 472.888C269.438 472.551 269.514 472.117 269.514 471.586V465.769H270.93V471.839C270.93 472.96 270.643 473.79 270.07 474.33C269.497 474.861 268.603 475.126 267.39 475.126ZM274.921 475.126C274.129 475.126 273.547 474.911 273.176 474.482C272.805 474.052 272.62 473.381 272.62 472.471V468.425H273.985V472.218C273.985 472.825 274.087 473.272 274.289 473.559C274.5 473.845 274.837 473.988 275.3 473.988C275.646 473.988 275.95 473.917 276.211 473.773C276.481 473.63 276.691 473.436 276.843 473.192C276.995 472.939 277.071 472.657 277.071 472.345V468.425H278.436V475H277.134L277.121 474.216H277.096C276.835 474.52 276.527 474.747 276.173 474.899C275.819 475.051 275.402 475.126 274.921 475.126ZM280.379 475V468.425H281.681L281.694 469.209H281.719C281.981 468.905 282.297 468.678 282.668 468.526C283.038 468.374 283.468 468.298 283.957 468.298C284.767 468.298 285.361 468.513 285.74 468.943C286.128 469.373 286.322 470.043 286.322 470.954V475H284.956V471.207C284.956 470.6 284.842 470.153 284.615 469.866C284.396 469.58 284.05 469.436 283.578 469.436C283.224 469.436 282.908 469.508 282.63 469.651C282.351 469.795 282.132 469.989 281.972 470.233C281.82 470.477 281.745 470.76 281.745 471.08V475H280.379ZM290.733 475.126C289.974 475.126 289.427 474.97 289.089 474.659C288.761 474.338 288.596 473.82 288.596 473.103V469.563H287.079V468.425H288.596V466.275H289.974V468.425H292.263V469.563H289.974V472.724C289.974 473.171 290.05 473.483 290.202 473.66C290.354 473.837 290.624 473.925 291.011 473.925C291.205 473.925 291.399 473.908 291.593 473.875C291.795 473.841 291.976 473.795 292.137 473.736L292.263 474.899C291.993 474.983 291.732 475.042 291.479 475.076C291.235 475.11 290.986 475.126 290.733 475.126ZM296.751 475.126C295.613 475.126 294.736 474.831 294.12 474.241C293.505 473.651 293.197 472.808 293.197 471.712C293.197 470.65 293.48 469.816 294.045 469.209C294.618 468.602 295.402 468.298 296.396 468.298C297.357 468.298 298.095 468.585 298.609 469.158C299.132 469.731 299.393 470.545 299.393 471.599C299.393 471.708 299.389 471.83 299.381 471.965C299.381 472.1 299.376 472.206 299.368 472.281H293.956V471.207H298.331L298.116 471.535C298.116 470.819 297.973 470.288 297.686 469.942C297.4 469.588 296.97 469.411 296.396 469.411C295.79 469.411 295.326 469.597 295.006 469.967C294.694 470.338 294.538 470.878 294.538 471.586V471.965C294.538 472.648 294.715 473.158 295.069 473.495C295.431 473.824 295.975 473.988 296.7 473.988C297.054 473.988 297.429 473.955 297.825 473.887C298.23 473.811 298.588 473.714 298.9 473.596L299.077 474.697C298.757 474.831 298.39 474.937 297.977 475.013C297.572 475.089 297.164 475.126 296.751 475.126ZM300.736 471.965V470.701H304.656V471.965H300.736ZM308.509 475.126C308.214 475.126 307.906 475.105 307.586 475.063C307.274 475.03 306.975 474.979 306.688 474.911C306.401 474.836 306.148 474.751 305.929 474.659L306.119 473.546C306.49 473.681 306.865 473.79 307.244 473.875C307.624 473.951 307.999 473.988 308.37 473.988C308.859 473.988 309.221 473.921 309.457 473.786C309.702 473.643 309.824 473.432 309.824 473.154C309.824 472.994 309.782 472.863 309.697 472.762C309.613 472.652 309.466 472.555 309.255 472.471C309.044 472.378 308.753 472.29 308.382 472.206C307.877 472.079 307.434 471.932 307.055 471.763C306.684 471.594 306.397 471.379 306.195 471.118C305.993 470.857 305.891 470.528 305.891 470.132C305.891 469.533 306.119 469.078 306.574 468.766C307.038 468.454 307.704 468.298 308.572 468.298C308.977 468.298 309.39 468.332 309.811 468.4C310.241 468.467 310.633 468.564 310.987 468.69L310.785 469.803C310.448 469.677 310.106 469.584 309.761 469.525C309.423 469.466 309.082 469.436 308.736 469.436C308.239 469.436 307.868 469.5 307.624 469.626C307.388 469.744 307.27 469.925 307.27 470.17C307.27 470.313 307.308 470.435 307.383 470.536C307.468 470.638 307.611 470.73 307.813 470.815C308.016 470.899 308.298 470.983 308.661 471.068C309.031 471.152 309.369 471.253 309.672 471.371C309.984 471.489 310.254 471.632 310.481 471.801C310.709 471.961 310.886 472.155 311.012 472.383C311.139 472.61 311.202 472.88 311.202 473.192C311.202 473.596 311.092 473.942 310.873 474.229C310.663 474.515 310.355 474.739 309.95 474.899C309.554 475.051 309.074 475.126 308.509 475.126ZM315.742 475.126C314.604 475.126 313.727 474.831 313.112 474.241C312.497 473.651 312.189 472.808 312.189 471.712C312.189 470.65 312.471 469.816 313.036 469.209C313.609 468.602 314.393 468.298 315.388 468.298C316.349 468.298 317.087 468.585 317.601 469.158C318.123 469.731 318.385 470.545 318.385 471.599C318.385 471.708 318.381 471.83 318.372 471.965C318.372 472.1 318.368 472.206 318.359 472.281H312.948V471.207H317.323L317.108 471.535C317.108 470.819 316.964 470.288 316.678 469.942C316.391 469.588 315.961 469.411 315.388 469.411C314.781 469.411 314.317 469.597 313.997 469.967C313.685 470.338 313.529 470.878 313.529 471.586V471.965C313.529 472.648 313.706 473.158 314.06 473.495C314.423 473.824 314.967 473.988 315.691 473.988C316.046 473.988 316.421 473.955 316.817 473.887C317.221 473.811 317.58 473.714 317.892 473.596L318.069 474.697C317.748 474.831 317.382 474.937 316.969 475.013C316.564 475.089 316.155 475.126 315.742 475.126ZM324.918 475.126C324.26 475.126 323.742 474.949 323.363 474.595C322.983 474.233 322.794 473.744 322.794 473.129C322.794 472.362 323.097 471.771 323.704 471.358C324.311 470.937 325.175 470.726 326.296 470.726H327.245C327.245 470.389 327.202 470.128 327.118 469.942C327.034 469.757 326.886 469.626 326.676 469.55C326.473 469.474 326.191 469.436 325.828 469.436C325.398 469.436 324.96 469.479 324.513 469.563C324.075 469.647 323.658 469.774 323.262 469.942L323.072 468.817C323.493 468.657 323.957 468.53 324.463 468.437C324.977 468.345 325.491 468.298 326.005 468.298C326.663 468.298 327.177 468.378 327.548 468.539C327.927 468.699 328.197 468.969 328.357 469.348C328.526 469.727 328.61 470.229 328.61 470.853V475H327.308L327.295 474.241H327.27C327.042 474.503 326.705 474.718 326.258 474.886C325.82 475.046 325.373 475.126 324.918 475.126ZM325.398 474.014C325.736 474.014 326.043 473.951 326.321 473.824C326.608 473.698 326.831 473.529 326.992 473.318C327.16 473.108 327.245 472.872 327.245 472.61V471.763H326.486C325.71 471.763 325.129 471.864 324.741 472.066C324.353 472.269 324.159 472.576 324.159 472.99C324.159 473.31 324.265 473.563 324.475 473.748C324.695 473.925 325.002 474.014 325.398 474.014ZM333.908 475V468.425H335.185L335.198 469.209H335.223C335.459 468.922 335.746 468.699 336.083 468.539C336.42 468.378 336.812 468.298 337.259 468.298C337.697 468.298 338.068 468.378 338.372 468.539C338.675 468.69 338.89 468.914 339.017 469.209H339.042C339.286 468.897 339.573 468.669 339.902 468.526C340.239 468.374 340.631 468.298 341.078 468.298C341.794 468.298 342.317 468.488 342.646 468.867C342.974 469.238 343.139 469.828 343.139 470.638V475H341.799V470.954C341.799 470.431 341.71 470.048 341.533 469.803C341.356 469.559 341.074 469.436 340.686 469.436C340.231 469.436 339.868 469.588 339.598 469.892C339.329 470.187 339.194 470.583 339.194 471.08V475H337.853V470.827C337.853 470.381 337.756 470.039 337.563 469.803C337.369 469.559 337.095 469.436 336.741 469.436C336.463 469.436 336.21 469.508 335.982 469.651C335.754 469.795 335.573 469.993 335.438 470.246C335.312 470.49 335.249 470.768 335.249 471.08V475H333.908ZM346.441 475.126C345.783 475.126 345.265 474.949 344.886 474.595C344.506 474.233 344.317 473.744 344.317 473.129C344.317 472.362 344.62 471.771 345.227 471.358C345.834 470.937 346.698 470.726 347.819 470.726H348.767C348.767 470.389 348.725 470.128 348.641 469.942C348.557 469.757 348.409 469.626 348.198 469.55C347.996 469.474 347.714 469.436 347.351 469.436C346.921 469.436 346.483 469.479 346.036 469.563C345.598 469.647 345.181 469.774 344.784 469.942L344.595 468.817C345.016 468.657 345.48 468.53 345.986 468.437C346.5 468.345 347.014 468.298 347.528 468.298C348.186 468.298 348.7 468.378 349.071 468.539C349.45 468.699 349.72 468.969 349.88 469.348C350.049 469.727 350.133 470.229 350.133 470.853V475H348.831L348.818 474.241H348.793C348.565 474.503 348.228 474.718 347.781 474.886C347.343 475.046 346.896 475.126 346.441 475.126ZM346.921 474.014C347.259 474.014 347.566 473.951 347.844 473.824C348.131 473.698 348.354 473.529 348.515 473.318C348.683 473.108 348.767 472.872 348.767 472.61V471.763H348.009C347.233 471.763 346.652 471.864 346.264 472.066C345.876 472.269 345.682 472.576 345.682 472.99C345.682 473.31 345.788 473.563 345.998 473.748C346.217 473.925 346.525 474.014 346.921 474.014ZM351.988 467.16V465.769H353.379V467.16H351.988ZM351.988 475V468.425H353.379V475H351.988ZM357.568 475.126C357.273 475.126 356.965 475.105 356.645 475.063C356.333 475.03 356.034 474.979 355.747 474.911C355.461 474.836 355.208 474.751 354.989 474.659L355.178 473.546C355.549 473.681 355.924 473.79 356.304 473.875C356.683 473.951 357.058 473.988 357.429 473.988C357.918 473.988 358.28 473.921 358.516 473.786C358.761 473.643 358.883 473.432 358.883 473.154C358.883 472.994 358.841 472.863 358.757 472.762C358.672 472.652 358.525 472.555 358.314 472.471C358.103 472.378 357.813 472.29 357.442 472.206C356.936 472.079 356.493 471.932 356.114 471.763C355.743 471.594 355.457 471.379 355.254 471.118C355.052 470.857 354.951 470.528 354.951 470.132C354.951 469.533 355.178 469.078 355.634 468.766C356.097 468.454 356.763 468.298 357.631 468.298C358.036 468.298 358.449 468.332 358.871 468.4C359.3 468.467 359.692 468.564 360.046 468.69L359.844 469.803C359.507 469.677 359.166 469.584 358.82 469.525C358.483 469.466 358.141 469.436 357.796 469.436C357.298 469.436 356.927 469.5 356.683 469.626C356.447 469.744 356.329 469.925 356.329 470.17C356.329 470.313 356.367 470.435 356.443 470.536C356.527 470.638 356.67 470.73 356.873 470.815C357.075 470.899 357.357 470.983 357.72 471.068C358.091 471.152 358.428 471.253 358.731 471.371C359.043 471.489 359.313 471.632 359.541 471.801C359.768 471.961 359.945 472.155 360.072 472.383C360.198 472.61 360.261 472.88 360.261 473.192C360.261 473.596 360.152 473.942 359.933 474.229C359.722 474.515 359.414 474.739 359.01 474.899C358.613 475.051 358.133 475.126 357.568 475.126ZM367.599 475.126C366.723 475.126 366.036 474.827 365.538 474.229C365.041 473.622 364.792 472.783 364.792 471.712C364.792 470.642 365.041 469.807 365.538 469.209C366.036 468.602 366.723 468.298 367.599 468.298C368.046 468.298 368.451 468.378 368.813 468.539C369.184 468.69 369.488 468.914 369.724 469.209H369.749V465.769H371.115V475H369.812L369.799 474.216H369.774C369.538 474.503 369.226 474.726 368.838 474.886C368.459 475.046 368.046 475.126 367.599 475.126ZM367.903 473.988C368.265 473.988 368.581 473.917 368.851 473.773C369.129 473.63 369.348 473.432 369.509 473.179C369.669 472.926 369.749 472.644 369.749 472.332V471.093C369.749 470.773 369.669 470.49 369.509 470.246C369.348 469.993 369.129 469.795 368.851 469.651C368.581 469.508 368.269 469.436 367.915 469.436C367.351 469.436 366.912 469.634 366.6 470.031C366.289 470.418 366.133 470.979 366.133 471.712C366.133 472.437 366.289 472.998 366.6 473.394C366.912 473.79 367.346 473.988 367.903 473.988ZM376.137 475.126C374.999 475.126 374.122 474.831 373.507 474.241C372.892 473.651 372.584 472.808 372.584 471.712C372.584 470.65 372.866 469.816 373.431 469.209C374.004 468.602 374.788 468.298 375.783 468.298C376.744 468.298 377.482 468.585 377.996 469.158C378.518 469.731 378.78 470.545 378.78 471.599C378.78 471.708 378.776 471.83 378.767 471.965C378.767 472.1 378.763 472.206 378.754 472.281H373.343V471.207H377.718L377.503 471.535C377.503 470.819 377.359 470.288 377.073 469.942C376.786 469.588 376.356 469.411 375.783 469.411C375.176 469.411 374.712 469.597 374.392 469.967C374.08 470.338 373.924 470.878 373.924 471.586V471.965C373.924 472.648 374.101 473.158 374.455 473.495C374.818 473.824 375.362 473.988 376.086 473.988C376.441 473.988 376.816 473.955 377.212 473.887C377.616 473.811 377.975 473.714 378.287 473.596L378.464 474.697C378.143 474.831 377.777 474.937 377.364 475.013C376.959 475.089 376.55 475.126 376.137 475.126ZM383.657 473.736C384.542 473.061 385.288 472.467 385.895 471.953C386.502 471.438 386.986 470.979 387.349 470.574C387.711 470.17 387.973 469.799 388.133 469.462C388.301 469.116 388.386 468.787 388.386 468.475C388.386 467.43 387.817 466.907 386.679 466.907C385.785 466.907 384.832 467.253 383.821 467.944L383.391 466.718C384.377 466.001 385.541 465.643 386.881 465.643C387.842 465.643 388.571 465.866 389.068 466.313C389.566 466.76 389.814 467.422 389.814 468.298C389.814 468.703 389.739 469.108 389.587 469.512C389.444 469.908 389.212 470.322 388.891 470.751C388.571 471.181 388.154 471.641 387.64 472.13C387.125 472.61 386.502 473.137 385.768 473.71V473.736H389.916V475H383.657V473.736ZM394.931 475.126C393.717 475.126 392.811 474.739 392.212 473.963C391.622 473.179 391.327 471.986 391.327 470.385C391.327 468.783 391.622 467.595 392.212 466.819C392.811 466.035 393.717 465.643 394.931 465.643C396.145 465.643 397.047 466.035 397.637 466.819C398.235 467.595 398.535 468.783 398.535 470.385C398.535 471.986 398.235 473.179 397.637 473.963C397.047 474.739 396.145 475.126 394.931 475.126ZM394.931 473.862C395.681 473.862 396.229 473.58 396.575 473.015C396.929 472.45 397.106 471.573 397.106 470.385C397.106 469.188 396.929 468.311 396.575 467.755C396.229 467.19 395.681 466.907 394.931 466.907C394.189 466.907 393.641 467.19 393.287 467.755C392.933 468.311 392.756 469.188 392.756 470.385C392.756 471.573 392.933 472.45 393.287 473.015C393.641 473.58 394.189 473.862 394.931 473.862ZM403.019 475.126C401.805 475.126 400.899 474.739 400.301 473.963C399.71 473.179 399.415 471.986 399.415 470.385C399.415 468.783 399.71 467.595 400.301 466.819C400.899 466.035 401.805 465.643 403.019 465.643C404.233 465.643 405.135 466.035 405.725 466.819C406.324 467.595 406.623 468.783 406.623 470.385C406.623 471.986 406.324 473.179 405.725 473.963C405.135 474.739 404.233 475.126 403.019 475.126ZM403.019 473.862C403.769 473.862 404.317 473.58 404.663 473.015C405.017 472.45 405.194 471.573 405.194 470.385C405.194 469.188 405.017 468.311 404.663 467.755C404.317 467.19 403.769 466.907 403.019 466.907C402.277 466.907 401.729 467.19 401.375 467.755C401.021 468.311 400.844 469.188 400.844 470.385C400.844 471.573 401.021 472.45 401.375 473.015C401.729 473.58 402.277 473.862 403.019 473.862ZM411.107 475.126C409.893 475.126 408.987 474.739 408.389 473.963C407.798 473.179 407.503 471.986 407.503 470.385C407.503 468.783 407.798 467.595 408.389 466.819C408.987 466.035 409.893 465.643 411.107 465.643C412.321 465.643 413.223 466.035 413.813 466.819C414.412 467.595 414.711 468.783 414.711 470.385C414.711 471.986 414.412 473.179 413.813 473.963C413.223 474.739 412.321 475.126 411.107 475.126ZM411.107 473.862C411.857 473.862 412.405 473.58 412.751 473.015C413.105 472.45 413.282 471.573 413.282 470.385C413.282 469.188 413.105 468.311 412.751 467.755C412.405 467.19 411.857 466.907 411.107 466.907C410.365 466.907 409.817 467.19 409.463 467.755C409.109 468.311 408.932 469.188 408.932 470.385C408.932 471.573 409.109 472.45 409.463 473.015C409.817 473.58 410.365 473.862 411.107 473.862ZM419.667 475V468.425H420.944L420.956 469.209H420.982C421.218 468.922 421.504 468.699 421.841 468.539C422.179 468.378 422.571 468.298 423.017 468.298C423.456 468.298 423.827 468.378 424.13 468.539C424.434 468.69 424.648 468.914 424.775 469.209H424.8C425.045 468.897 425.331 468.669 425.66 468.526C425.997 468.374 426.389 468.298 426.836 468.298C427.553 468.298 428.075 468.488 428.404 468.867C428.733 469.238 428.897 469.828 428.897 470.638V475H427.557V470.954C427.557 470.431 427.468 470.048 427.291 469.803C427.114 469.559 426.832 469.436 426.444 469.436C425.989 469.436 425.626 469.588 425.357 469.892C425.087 470.187 424.952 470.583 424.952 471.08V475H423.612V470.827C423.612 470.381 423.515 470.039 423.321 469.803C423.127 469.559 422.853 469.436 422.499 469.436C422.221 469.436 421.968 469.508 421.74 469.651C421.513 469.795 421.331 469.993 421.197 470.246C421.07 470.49 421.007 470.768 421.007 471.08V475H419.667ZM430.758 467.16V465.769H432.148V467.16H430.758ZM430.758 475V468.425H432.148V475H430.758ZM434.264 475V465.769H435.655V475H434.264Z" fill="white"/>
<path id="OL&#195;&#129;, COMO VAI?" d="M225.247 283.126C224.278 283.126 223.435 282.937 222.719 282.557C222.002 282.17 221.45 281.622 221.062 280.914C220.683 280.197 220.493 279.354 220.493 278.385C220.493 277.407 220.683 276.564 221.062 275.856C221.45 275.148 222.002 274.604 222.719 274.225C223.435 273.837 224.278 273.643 225.247 273.643C226.234 273.643 227.081 273.837 227.789 274.225C228.506 274.604 229.053 275.148 229.433 275.856C229.821 276.564 230.014 277.407 230.014 278.385C230.014 279.354 229.821 280.197 229.433 280.914C229.053 281.622 228.506 282.17 227.789 282.557C227.081 282.937 226.234 283.126 225.247 283.126ZM225.247 281.571C225.871 281.571 226.402 281.445 226.841 281.192C227.279 280.939 227.612 280.576 227.84 280.104C228.076 279.624 228.194 279.051 228.194 278.385C228.194 277.719 228.076 277.15 227.84 276.678C227.612 276.197 227.279 275.831 226.841 275.578C226.402 275.325 225.871 275.198 225.247 275.198C224.632 275.198 224.101 275.325 223.654 275.578C223.216 275.831 222.879 276.197 222.643 276.678C222.415 277.15 222.301 277.719 222.301 278.385C222.301 279.051 222.415 279.624 222.643 280.104C222.879 280.576 223.216 280.939 223.654 281.192C224.101 281.445 224.632 281.571 225.247 281.571ZM231.482 283V273.769H233.29V281.445H238.095V283H231.482ZM239.032 283L242.218 273.769H244.608L247.795 283H245.847L243.419 275.274H243.394L240.979 283H239.032ZM240.891 280.888V279.346H245.948V280.888H240.891ZM244.229 273.137H242.585L243.597 270.355H245.746L244.229 273.137ZM248.845 285.15L249.693 281.065H251.678L250.325 285.15H248.845ZM261.208 283.126C260.196 283.126 259.328 282.941 258.603 282.57C257.878 282.191 257.321 281.647 256.934 280.939C256.554 280.231 256.365 279.379 256.365 278.385C256.365 277.39 256.554 276.539 256.934 275.831C257.321 275.122 257.878 274.583 258.603 274.212C259.328 273.833 260.196 273.643 261.208 273.643C262.362 273.643 263.387 273.892 264.28 274.389L263.876 275.932C263.007 275.443 262.143 275.198 261.283 275.198C260.643 275.198 260.091 275.325 259.627 275.578C259.163 275.831 258.809 276.197 258.565 276.678C258.32 277.15 258.198 277.719 258.198 278.385C258.198 279.042 258.32 279.611 258.565 280.092C258.809 280.572 259.163 280.939 259.627 281.192C260.091 281.445 260.643 281.571 261.283 281.571C262.126 281.571 262.99 281.327 263.876 280.838L264.28 282.38C263.387 282.878 262.362 283.126 261.208 283.126ZM269.689 283.126C268.719 283.126 267.876 282.937 267.16 282.557C266.443 282.17 265.891 281.622 265.503 280.914C265.124 280.197 264.934 279.354 264.934 278.385C264.934 277.407 265.124 276.564 265.503 275.856C265.891 275.148 266.443 274.604 267.16 274.225C267.876 273.837 268.719 273.643 269.689 273.643C270.675 273.643 271.522 273.837 272.23 274.225C272.947 274.604 273.495 275.148 273.874 275.856C274.262 276.564 274.456 277.407 274.456 278.385C274.456 279.354 274.262 280.197 273.874 280.914C273.495 281.622 272.947 282.17 272.23 282.557C271.522 282.937 270.675 283.126 269.689 283.126ZM269.689 281.571C270.312 281.571 270.844 281.445 271.282 281.192C271.72 280.939 272.053 280.576 272.281 280.104C272.517 279.624 272.635 279.051 272.635 278.385C272.635 277.719 272.517 277.15 272.281 276.678C272.053 276.197 271.72 275.831 271.282 275.578C270.844 275.325 270.312 275.198 269.689 275.198C269.073 275.198 268.542 275.325 268.095 275.578C267.657 275.831 267.32 276.197 267.084 276.678C266.856 277.15 266.742 277.719 266.742 278.385C266.742 279.051 266.856 279.624 267.084 280.104C267.32 280.576 267.657 280.939 268.095 281.192C268.542 281.445 269.073 281.571 269.689 281.571ZM275.923 283V273.769H278.149L280.5 279.181H280.526L282.878 273.769H285.103V283H283.333V276.551H283.308L281.335 281.04H279.691L277.719 276.551H277.693V283H275.923ZM291.323 283.126C290.353 283.126 289.51 282.937 288.794 282.557C288.077 282.17 287.525 281.622 287.137 280.914C286.758 280.197 286.568 279.354 286.568 278.385C286.568 277.407 286.758 276.564 287.137 275.856C287.525 275.148 288.077 274.604 288.794 274.225C289.51 273.837 290.353 273.643 291.323 273.643C292.309 273.643 293.156 273.837 293.864 274.225C294.581 274.604 295.129 275.148 295.508 275.856C295.896 276.564 296.09 277.407 296.09 278.385C296.09 279.354 295.896 280.197 295.508 280.914C295.129 281.622 294.581 282.17 293.864 282.557C293.156 282.937 292.309 283.126 291.323 283.126ZM291.323 281.571C291.946 281.571 292.478 281.445 292.916 281.192C293.354 280.939 293.687 280.576 293.915 280.104C294.151 279.624 294.269 279.051 294.269 278.385C294.269 277.719 294.151 277.15 293.915 276.678C293.687 276.197 293.354 275.831 292.916 275.578C292.478 275.325 291.946 275.198 291.323 275.198C290.707 275.198 290.176 275.325 289.729 275.578C289.291 275.831 288.954 276.197 288.718 276.678C288.49 277.15 288.376 277.719 288.376 278.385C288.376 279.051 288.49 279.624 288.718 280.104C288.954 280.576 289.291 280.939 289.729 281.192C290.176 281.445 290.707 281.571 291.323 281.571ZM303.316 283L300.18 273.769H302.127L304.467 281.23H304.492L306.831 273.769H308.778L305.63 283H303.316ZM308.206 283L311.393 273.769H313.783L316.969 283H315.022L312.594 275.274H312.569L310.154 283H308.206ZM310.065 280.888V279.346H315.123V280.888H310.065ZM318.181 283V273.769H320.027V283H318.181ZM323.737 280.18C323.737 279.835 323.78 279.51 323.864 279.207C323.957 278.895 324.108 278.595 324.319 278.309C324.53 278.022 324.821 277.744 325.191 277.474C325.461 277.289 325.676 277.116 325.836 276.956C325.997 276.796 326.106 276.644 326.165 276.501C326.233 276.349 326.266 276.197 326.266 276.045C326.266 275.742 326.131 275.523 325.862 275.388C325.6 275.253 325.175 275.186 324.585 275.186C324.155 275.186 323.716 275.224 323.27 275.299C322.823 275.375 322.355 275.493 321.866 275.654L321.525 274.136C322.014 273.976 322.545 273.854 323.118 273.769C323.691 273.685 324.264 273.643 324.837 273.643C327.029 273.643 328.125 274.36 328.125 275.793C328.125 276.105 328.074 276.4 327.973 276.678C327.872 276.947 327.708 277.209 327.48 277.462C327.261 277.715 326.962 277.972 326.582 278.233C326.33 278.41 326.123 278.604 325.963 278.815C325.811 279.025 325.701 279.249 325.634 279.485C325.567 279.712 325.524 279.944 325.508 280.18H323.737ZM323.649 283V281.192H325.596V283H323.649Z" fill="#D3D3D3"/>
<g id="notifications">
<rect width="308.211" height="31.6114" transform="translate(200 84)" fill="#060802"/>
<path id="19:07" d="M239.879 98.6585V107.854H237.935V100.504H237.881L235.775 101.824V100.1L238.052 98.6585H239.879ZM245.392 98.5327C245.865 98.5327 246.32 98.6121 246.757 98.7707C247.197 98.9294 247.59 99.1823 247.934 99.5296C248.281 99.8768 248.555 100.338 248.755 100.913C248.959 101.484 249.062 102.186 249.065 103.018C249.065 103.8 248.977 104.497 248.8 105.111C248.627 105.722 248.377 106.241 248.051 106.669C247.724 107.097 247.331 107.423 246.87 107.648C246.409 107.869 245.894 107.98 245.325 107.98C244.711 107.98 244.169 107.862 243.699 107.625C243.229 107.386 242.851 107.061 242.563 106.651C242.279 106.238 242.107 105.774 242.047 105.259H243.964C244.039 105.594 244.196 105.855 244.436 106.04C244.675 106.223 244.972 106.314 245.325 106.314C245.924 106.314 246.379 106.054 246.69 105.533C247.001 105.009 247.158 104.292 247.161 103.382H247.099C246.961 103.652 246.775 103.884 246.542 104.078C246.308 104.27 246.04 104.418 245.738 104.523C245.439 104.627 245.12 104.68 244.782 104.68C244.24 104.68 243.756 104.553 243.331 104.298C242.906 104.044 242.571 103.694 242.325 103.247C242.08 102.801 241.957 102.293 241.957 101.721C241.954 101.104 242.096 100.555 242.384 100.073C242.671 99.5909 243.072 99.2137 243.587 98.9413C244.105 98.6659 244.707 98.5297 245.392 98.5327ZM245.406 100.059C245.103 100.059 244.834 100.131 244.597 100.275C244.364 100.419 244.178 100.612 244.041 100.854C243.906 101.097 243.84 101.368 243.843 101.667C243.843 101.969 243.909 102.242 244.041 102.484C244.175 102.724 244.358 102.915 244.589 103.059C244.822 103.2 245.088 103.27 245.388 103.27C245.612 103.27 245.82 103.228 246.012 103.144C246.204 103.06 246.37 102.945 246.51 102.798C246.654 102.649 246.766 102.477 246.847 102.282C246.928 102.088 246.968 101.881 246.968 101.662C246.965 101.372 246.897 101.106 246.762 100.863C246.627 100.621 246.441 100.426 246.205 100.279C245.969 100.133 245.702 100.059 245.406 100.059ZM251.548 106.786C251.252 106.786 250.998 106.681 250.785 106.471C250.576 106.262 250.471 106.008 250.471 105.708C250.471 105.415 250.576 105.163 250.785 104.954C250.998 104.744 251.252 104.639 251.548 104.639C251.836 104.639 252.087 104.744 252.303 104.954C252.518 105.163 252.626 105.415 252.626 105.708C252.626 105.906 252.575 106.087 252.473 106.251C252.375 106.413 252.244 106.543 252.083 106.642C251.921 106.738 251.743 106.786 251.548 106.786ZM251.548 102.273C251.252 102.273 250.998 102.168 250.785 101.959C250.576 101.749 250.471 101.495 250.471 101.195C250.471 100.902 250.576 100.652 250.785 100.446C250.998 100.236 251.252 100.131 251.548 100.131C251.836 100.131 252.087 100.236 252.303 100.446C252.518 100.652 252.626 100.902 252.626 101.195C252.626 101.396 252.575 101.579 252.473 101.743C252.375 101.905 252.244 102.034 252.083 102.129C251.921 102.225 251.743 102.273 251.548 102.273ZM257.784 108.057C257.012 108.054 256.347 107.863 255.791 107.486C255.237 107.109 254.81 106.563 254.511 105.847C254.214 105.132 254.068 104.271 254.071 103.265C254.071 102.263 254.219 101.408 254.515 100.702C254.815 99.9951 255.241 99.4577 255.795 99.0895C256.352 98.7183 257.015 98.5327 257.784 98.5327C258.554 98.5327 259.215 98.7183 259.769 99.0895C260.326 99.4607 260.754 99.9995 261.053 100.706C261.352 101.409 261.501 102.263 261.498 103.265C261.498 104.274 261.348 105.136 261.049 105.852C260.752 106.567 260.327 107.114 259.773 107.491C259.22 107.868 258.557 108.057 257.784 108.057ZM257.784 106.445C258.311 106.445 258.732 106.18 259.046 105.65C259.36 105.12 259.516 104.325 259.513 103.265C259.513 102.568 259.441 101.987 259.297 101.523C259.157 101.059 258.956 100.711 258.696 100.477C258.438 100.244 258.134 100.127 257.784 100.127C257.26 100.127 256.841 100.389 256.527 100.913C256.213 101.436 256.054 102.221 256.051 103.265C256.051 103.972 256.121 104.562 256.262 105.035C256.406 105.505 256.608 105.858 256.868 106.094C257.129 106.328 257.434 106.445 257.784 106.445ZM263.001 107.854L266.813 100.311V100.248H262.372V98.6585H268.825V100.27L265.008 107.854H263.001Z" fill="#F2F7E9"/>
<g id="Group 5230">
<rect id="Rectangle 2095" x="429.183" y="101.232" width="2.31303" height="2.77563" rx="0.693908" fill="#FBFFF5"/>
<rect id="Rectangle 2099" x="429.183" y="105.396" width="2.31303" height="2.31303" rx="0.693908" fill="#FBFFF5"/>
<rect id="Rectangle 2100" x="432.883" y="105.396" width="2.31303" height="2.31303" rx="0.693908" fill="#FBFFF5"/>
<rect id="Rectangle 2101" x="436.584" y="105.396" width="2.31303" height="2.31303" rx="0.693908" fill="#FBFFF5"/>
<rect id="Rectangle 2102" x="440.285" y="105.396" width="2.31303" height="2.31303" rx="0.693908" fill="#FBFFF5"/>
<rect id="Rectangle 2096" x="432.883" y="100.307" width="2.31303" height="3.70084" rx="0.693908" fill="#FBFFF5"/>
<rect id="Rectangle 2097" x="436.584" y="99.3818" width="2.31303" height="4.62606" rx="0.693908" fill="#FBFFF5"/>
<rect id="Rectangle 2098" x="440.285" y="98.2251" width="2.31303" height="5.78257" rx="0.693908" fill="#FBFFF5"/>
</g>
<g id="Vector 1104">
<path d="M448.685 102.002L448.195 101.511C447.99 101.307 448.021 100.967 448.263 100.807C452.543 97.9801 455.012 98.1609 458.914 100.805C459.152 100.966 459.181 101.304 458.978 101.507L458.484 102.001C458.326 102.16 458.077 102.181 457.891 102.056C454.557 99.817 452.571 99.8527 449.278 102.057C449.092 102.182 448.843 102.16 448.685 102.002Z" fill="#F2F7E9"/>
<path d="M450.663 104.122L450.199 103.704C449.978 103.505 450 103.152 450.248 102.989C452.689 101.385 454.267 101.332 456.803 102.989C457.052 103.152 457.074 103.506 456.853 103.704L456.394 104.118C456.237 104.259 456.006 104.275 455.827 104.165C454.074 103.09 452.978 103.122 451.224 104.172C451.046 104.278 450.818 104.261 450.663 104.122Z" fill="#F2F7E9"/>
<path d="M453.257 106.805L452.351 105.899C452.149 105.697 452.175 105.359 452.42 105.213C453.312 104.685 453.931 104.717 454.751 105.211C454.995 105.358 455.021 105.696 454.819 105.897L453.911 106.805C453.731 106.986 453.438 106.986 453.257 106.805Z" fill="#F2F7E9"/>
</g>
<g id="Group 5231">
<rect id="Rectangle 2103" x="464.572" y="98.2251" width="17.3477" height="9.48341" rx="2.54433" fill="#FBFFF5" fill-opacity="0.3"/>
<rect id="Rectangle 2104" x="464.572" y="98.2251" width="14.3408" height="9.48341" rx="2.54433" fill="#FBFFF5"/>
<path id="Vector 1103" d="M482.613 104.354V101.694C483.192 102.041 483.491 102.317 483.538 102.967C483.538 103.545 483.307 104.007 482.613 104.354Z" fill="#FBFFF5" fill-opacity="0.3"/>
</g>
<path id="77" d="M468.032 105.225L470.415 100.51V100.471H467.639V99.4776H471.672V100.485L469.287 105.225H468.032ZM472.887 105.225L475.269 100.51V100.471H472.494V99.4776H476.526V100.485L474.141 105.225H472.887Z" fill="#12140D"/>
</g>
<g id="Group 27624">
<g id="Group 27622">
<g id="Group 27621">
<rect id="Rectangle 899" x="252" y="577" width="129" height="113.495" rx="32.3077" fill="white"/>
<rect id="moviment-3" x="271.846" y="598.707" width="86.8269" height="11.1635" rx="5.58173" fill="#03002F"/>
<rect id="moviment-4" x="271.226" y="625.375" width="62.0192" height="11.1635" rx="5.58173" fill="#03002F"/>
<rect id="moviment-5" x="271.226" y="652.043" width="28.5288" height="11.1635" rx="5.58173" fill="#03002F"/>
</g>
</g>
</g>
</g>
</g>
</g>
<g id="Group 27623">
<g id="Group 27622_2">
<g id="Group 27621_2">
<rect id="Rectangle 899_2" x="414" y="566" width="208" height="140" rx="32.3077" fill="white"/>
<rect id="moviment-1" x="446" y="601" width="140" height="18" rx="9" fill="#03002F"/>
<rect id="moviment-2" x="445" y="644" width="100" height="18" rx="9" fill="#03002F"/>
</g>
</g>
</g>
<g id="Group 41">
<path id="Delux" d="M290.84 154.88C291.912 154.88 292.904 155.032 293.816 155.336C294.728 155.64 295.512 156.096 296.168 156.704C296.84 157.296 297.36 158.048 297.728 158.96C298.112 159.856 298.304 160.904 298.304 162.104C298.304 163.56 298.08 164.792 297.632 165.8C297.184 166.808 296.576 167.624 295.808 168.248C295.056 168.872 294.176 169.32 293.168 169.592C292.176 169.864 291.12 170 290 170H285.92V154.88H290.84ZM288.128 168.176H289.784C290.552 168.176 291.304 168.096 292.04 167.936C292.776 167.76 293.424 167.448 293.984 167C294.56 166.536 295.024 165.912 295.376 165.128C295.728 164.344 295.904 163.336 295.904 162.104C295.904 161.24 295.776 160.472 295.52 159.8C295.264 159.128 294.896 158.568 294.416 158.12C293.936 157.656 293.352 157.304 292.664 157.064C291.992 156.824 291.24 156.704 290.408 156.704H288.128V168.176ZM310.63 164.6H302.542V164.696C302.542 165.944 302.878 166.904 303.55 167.576C304.238 168.248 305.166 168.584 306.334 168.584C306.942 168.584 307.478 168.536 307.942 168.44C308.422 168.344 308.942 168.184 309.502 167.96L309.934 169.52C309.47 169.728 308.918 169.896 308.278 170.024C307.654 170.152 306.982 170.216 306.262 170.216C305.446 170.216 304.678 170.104 303.958 169.88C303.254 169.656 302.63 169.312 302.086 168.848C301.542 168.368 301.11 167.76 300.79 167.024C300.486 166.288 300.334 165.408 300.334 164.384C300.334 163.504 300.462 162.704 300.718 161.984C300.99 161.264 301.366 160.656 301.846 160.16C302.326 159.648 302.902 159.256 303.574 158.984C304.262 158.696 305.03 158.552 305.878 158.552C306.598 158.552 307.246 158.672 307.822 158.912C308.414 159.152 308.918 159.488 309.334 159.92C309.75 160.352 310.07 160.872 310.294 161.48C310.518 162.088 310.63 162.76 310.63 163.496V164.6ZM308.446 163.088C308.446 162.672 308.39 162.288 308.278 161.936C308.182 161.568 308.022 161.248 307.798 160.976C307.59 160.704 307.318 160.488 306.982 160.328C306.646 160.168 306.238 160.088 305.758 160.088C304.878 160.088 304.158 160.368 303.598 160.928C303.054 161.488 302.718 162.224 302.59 163.136L308.446 163.088ZM313.22 170V152.96H315.284V170H313.22ZM326.215 158.72H328.327V170H326.671L326.383 168.584H326.287C325.871 169.048 325.351 169.44 324.727 169.76C324.119 170.064 323.407 170.216 322.591 170.216C321.423 170.216 320.471 169.888 319.735 169.232C319.015 168.56 318.655 167.552 318.655 166.208V158.72H320.767V165.944C320.767 166.424 320.823 166.832 320.935 167.168C321.063 167.504 321.223 167.776 321.415 167.984C321.623 168.176 321.863 168.32 322.135 168.416C322.407 168.496 322.703 168.536 323.023 168.536C323.663 168.536 324.239 168.4 324.751 168.128C325.263 167.856 325.751 167.48 326.215 167V158.72ZM336.537 164.288L340.497 170H338.097L336.153 167.168L335.265 165.704L334.449 167.144L332.577 170H330.225L334.137 164.288L330.417 158.72H332.793L334.569 161.48L335.433 162.92L336.273 161.48L337.929 158.72H340.233L336.537 164.288Z" fill="white"/>
<g id="Group 37">
<g id="Union" filter="url(#filter2_dddd_6121_1299)">
<path d="M213.326 178.652C213.027 179.364 213.266 180.188 213.901 180.629L238.381 197.607C239.233 198.198 240.411 197.857 240.816 196.903L247.588 180.935C247.89 180.222 247.651 179.396 247.016 178.955L222.5 161.952C221.647 161.36 220.467 161.704 220.064 162.66L213.326 178.652Z" fill="url(#paint1_linear_6121_1299)"/>
</g>
<g id="Union_2" filter="url(#filter3_dddd_6121_1299)">
<path d="M267.989 179.784C267.732 180.387 267.141 180.777 266.486 180.777H214.741C213.573 180.777 212.783 179.587 213.236 178.51L220.335 161.652C220.59 161.046 221.183 160.653 221.84 160.653H273.67C274.841 160.653 275.631 161.849 275.172 162.926L267.989 179.784Z" fill="#FFA274"/>
</g>
<g id="Union_3" filter="url(#filter4_dddd_6121_1299)">
<path d="M276.882 155.131C276.626 155.734 276.034 156.125 275.38 156.125H223.635C222.467 156.125 221.676 154.934 222.129 153.857L229.229 136.999C229.484 136.394 230.077 136 230.734 136H282.563C283.734 136 284.525 137.196 284.066 138.273L276.882 155.131Z" fill="#FFA274"/>
</g>
</g>
</g>
</g>
</g>
</g>
</g>
</g>
<defs>
<filter id="filter0_d_6121_1299" x="508" y="184" width="13.2842" height="83.0708" filterUnits="userSpaceOnUse" color-interpolation-filters="sRGB">
<feFlood flood-opacity="0" result="BackgroundImageFix"/>
<feColorMatrix in="SourceAlpha" type="matrix" values="0 0 0 0 0 0 0 0 0 0 0 0 0 0 0 0 0 0 127 0" result="hardAlpha"/>
<feOffset dx="-2"/>
<feGaussianBlur stdDeviation="2.5"/>
<feColorMatrix type="matrix" values="0 0 0 0 0 0 0 0 0 0 0 0 0 0 0 0 0 0 0.12 0"/>
<feBlend mode="normal" in2="BackgroundImageFix" result="effect1_dropShadow_6121_1299"/>
<feBlend mode="normal" in="SourceGraphic" in2="effect1_dropShadow_6121_1299" result="shape"/>
</filter>
<filter id="filter1_f_6121_1299" x="166.018" y="608.749" width="376.175" height="162.799" filterUnits="userSpaceOnUse" color-interpolation-filters="sRGB">
<feFlood flood-opacity="0" result="BackgroundImageFix"/>
<feBlend mode="normal" in="SourceGraphic" in2="BackgroundImageFix" result="shape"/>
<feGaussianBlur stdDeviation="32.7968" result="effect1_foregroundBlur_6121_1299"/>
</filter>
<filter id="filter2_dddd_6121_1299" x="200.358" y="161.66" width="60.1993" height="65.1285" filterUnits="userSpaceOnUse" color-interpolation-filters="sRGB">
<feFlood flood-opacity="0" result="BackgroundImageFix"/>
<feColorMatrix in="SourceAlpha" type="matrix" values="0 0 0 0 0 0 0 0 0 0 0 0 0 0 0 0 0 0 127 0" result="hardAlpha"/>
<feOffset dy="0.726866"/>
<feGaussianBlur stdDeviation="0.290747"/>
<feColorMatrix type="matrix" values="0 0 0 0 0 0 0 0 0 0 0 0 0 0 0 0 0 0 0.0243888 0"/>
<feBlend mode="normal" in2="BackgroundImageFix" result="effect1_dropShadow_6121_1299"/>
<feColorMatrix in="SourceAlpha" type="matrix" values="0 0 0 0 0 0 0 0 0 0 0 0 0 0 0 0 0 0 127 0" result="hardAlpha"/>
<feOffset dy="2.00969"/>
<feGaussianBlur stdDeviation="0.803877"/>
<feColorMatrix type="matrix" values="0 0 0 0 0 0 0 0 0 0 0 0 0 0 0 0 0 0 0.035 0"/>
<feBlend mode="normal" in2="effect1_dropShadow_6121_1299" result="effect2_dropShadow_6121_1299"/>
<feColorMatrix in="SourceAlpha" type="matrix" values="0 0 0 0 0 0 0 0 0 0 0 0 0 0 0 0 0 0 127 0" result="hardAlpha"/>
<feOffset dy="4.83856"/>
<feGaussianBlur stdDeviation="1.93543"/>
<feColorMatrix type="matrix" values="0 0 0 0 0 0 0 0 0 0 0 0 0 0 0 0 0 0 0.0456112 0"/>
<feBlend mode="normal" in2="effect2_dropShadow_6121_1299" result="effect3_dropShadow_6121_1299"/>
<feColorMatrix in="SourceAlpha" type="matrix" values="0 0 0 0 0 0 0 0 0 0 0 0 0 0 0 0 0 0 127 0" result="hardAlpha"/>
<feOffset dy="16.0499"/>
<feGaussianBlur stdDeviation="6.41995"/>
<feColorMatrix type="matrix" values="0 0 0 0 0 0 0 0 0 0 0 0 0 0 0 0 0 0 0.07 0"/>
<feBlend mode="normal" in2="effect3_dropShadow_6121_1299" result="effect4_dropShadow_6121_1299"/>
<feBlend mode="normal" in="SourceGraphic" in2="effect4_dropShadow_6121_1299" result="shape"/>
</filter>
<filter id="filter3_dddd_6121_1299" x="200.267" y="160.653" width="87.878" height="49.0143" filterUnits="userSpaceOnUse" color-interpolation-filters="sRGB">
<feFlood flood-opacity="0" result="BackgroundImageFix"/>
<feColorMatrix in="SourceAlpha" type="matrix" values="0 0 0 0 0 0 0 0 0 0 0 0 0 0 0 0 0 0 127 0" result="hardAlpha"/>
<feOffset dy="0.726866"/>
<feGaussianBlur stdDeviation="0.290747"/>
<feColorMatrix type="matrix" values="0 0 0 0 0 0 0 0 0 0 0 0 0 0 0 0 0 0 0.0243888 0"/>
<feBlend mode="normal" in2="BackgroundImageFix" result="effect1_dropShadow_6121_1299"/>
<feColorMatrix in="SourceAlpha" type="matrix" values="0 0 0 0 0 0 0 0 0 0 0 0 0 0 0 0 0 0 127 0" result="hardAlpha"/>
<feOffset dy="2.00969"/>
<feGaussianBlur stdDeviation="0.803877"/>
<feColorMatrix type="matrix" values="0 0 0 0 0 0 0 0 0 0 0 0 0 0 0 0 0 0 0.035 0"/>
<feBlend mode="normal" in2="effect1_dropShadow_6121_1299" result="effect2_dropShadow_6121_1299"/>
<feColorMatrix in="SourceAlpha" type="matrix" values="0 0 0 0 0 0 0 0 0 0 0 0 0 0 0 0 0 0 127 0" result="hardAlpha"/>
<feOffset dy="4.83856"/>
<feGaussianBlur stdDeviation="1.93543"/>
<feColorMatrix type="matrix" values="0 0 0 0 0 0 0 0 0 0 0 0 0 0 0 0 0 0 0.0456112 0"/>
<feBlend mode="normal" in2="effect2_dropShadow_6121_1299" result="effect3_dropShadow_6121_1299"/>
<feColorMatrix in="SourceAlpha" type="matrix" values="0 0 0 0 0 0 0 0 0 0 0 0 0 0 0 0 0 0 127 0" result="hardAlpha"/>
<feOffset dy="16.0499"/>
<feGaussianBlur stdDeviation="6.41995"/>
<feColorMatrix type="matrix" values="0 0 0 0 0 0 0 0 0 0 0 0 0 0 0 0 0 0 0.07 0"/>
<feBlend mode="normal" in2="effect3_dropShadow_6121_1299" result="effect4_dropShadow_6121_1299"/>
<feBlend mode="normal" in="SourceGraphic" in2="effect4_dropShadow_6121_1299" result="shape"/>
</filter>
<filter id="filter4_dddd_6121_1299" x="209.16" y="136" width="87.878" height="49.0143" filterUnits="userSpaceOnUse" color-interpolation-filters="sRGB">
<feFlood flood-opacity="0" result="BackgroundImageFix"/>
<feColorMatrix in="SourceAlpha" type="matrix" values="0 0 0 0 0 0 0 0 0 0 0 0 0 0 0 0 0 0 127 0" result="hardAlpha"/>
<feOffset dy="0.726866"/>
<feGaussianBlur stdDeviation="0.290747"/>
<feColorMatrix type="matrix" values="0 0 0 0 0 0 0 0 0 0 0 0 0 0 0 0 0 0 0.0243888 0"/>
<feBlend mode="normal" in2="BackgroundImageFix" result="effect1_dropShadow_6121_1299"/>
<feColorMatrix in="SourceAlpha" type="matrix" values="0 0 0 0 0 0 0 0 0 0 0 0 0 0 0 0 0 0 127 0" result="hardAlpha"/>
<feOffset dy="2.00969"/>
<feGaussianBlur stdDeviation="0.803877"/>
<feColorMatrix type="matrix" values="0 0 0 0 0 0 0 0 0 0 0 0 0 0 0 0 0 0 0.035 0"/>
<feBlend mode="normal" in2="effect1_dropShadow_6121_1299" result="effect2_dropShadow_6121_1299"/>
<feColorMatrix in="SourceAlpha" type="matrix" values="0 0 0 0 0 0 0 0 0 0 0 0 0 0 0 0 0 0 127 0" result="hardAlpha"/>
<feOffset dy="4.83856"/>
<feGaussianBlur stdDeviation="1.93543"/>
<feColorMatrix type="matrix" values="0 0 0 0 0 0 0 0 0 0 0 0 0 0 0 0 0 0 0.0456112 0"/>
<feBlend mode="normal" in2="effect2_dropShadow_6121_1299" result="effect3_dropShadow_6121_1299"/>
<feColorMatrix in="SourceAlpha" type="matrix" values="0 0 0 0 0 0 0 0 0 0 0 0 0 0 0 0 0 0 127 0" result="hardAlpha"/>
<feOffset dy="16.0499"/>
<feGaussianBlur stdDeviation="6.41995"/>
<feColorMatrix type="matrix" values="0 0 0 0 0 0 0 0 0 0 0 0 0 0 0 0 0 0 0.07 0"/>
<feBlend mode="normal" in2="effect3_dropShadow_6121_1299" result="effect4_dropShadow_6121_1299"/>
<feBlend mode="normal" in="SourceGraphic" in2="effect4_dropShadow_6121_1299" result="shape"/>
</filter>
<linearGradient id="paint0_linear_6121_1299" x1="449.476" y1="672.875" x2="444.284" y2="726.116" gradientUnits="userSpaceOnUse">
<stop stop-color="#A9C96B"/>
<stop offset="1" stop-color="#515D3D"/>
</linearGradient>
<linearGradient id="paint1_linear_6121_1299" x1="239.297" y1="196.989" x2="237.486" y2="166.021" gradientUnits="userSpaceOnUse">
<stop stop-color="#FDFDFD"/>
<stop offset="1" stop-color="#FDFDFD" stop-opacity="0"/>
</linearGradient>
<clipPath id="clip0_6121_1299">
<rect width="328" height="686" fill="white" transform="translate(189 75)"/>
</clipPath>
<clipPath id="clip1_6121_1299">
<rect x="200" y="84" width="308.211" height="667" rx="36" fill="white"/>
</clipPath>
</defs>
</svg>
