<svg width="141" height="91" viewBox="0 0 141 91" fill="none" xmlns="http://www.w3.org/2000/svg">
<g filter="url(#filter0_dddd_6122_1301)">
<path d="M13.3264 42.6524C13.0266 43.364 13.2662 44.1884 13.9007 44.6285L38.3813 61.6072C39.2326 62.1975 40.4113 61.8565 40.8157 60.9028L47.5883 44.9347C47.8904 44.2224 47.6513 43.3959 47.0155 42.9549L22.4998 25.9517C21.6473 25.3604 20.4667 25.7036 20.0639 26.6597L13.3264 42.6524Z" fill="url(#paint0_linear_6122_1301)"/>
</g>
<g filter="url(#filter1_dddd_6122_1301)">
<path d="M67.9888 43.7843C67.7322 44.3865 67.1409 44.7773 66.4863 44.7773H14.7411C13.573 44.7773 12.7825 43.5868 13.2359 42.5102L20.3351 25.652C20.5902 25.0464 21.1833 24.6526 21.8404 24.6526H73.6697C74.8408 24.6526 75.6313 25.8487 75.1722 26.9261L67.9888 43.7843Z" fill="#FFA274"/>
</g>
<g filter="url(#filter2_dddd_6122_1301)">
<path d="M76.8824 19.132C76.6258 19.7342 76.0344 20.125 75.3799 20.125H23.6347C22.4665 20.125 21.6761 18.9344 22.1294 17.8579L29.2287 0.999635C29.4837 0.394046 30.0768 0.000260732 30.7339 0.000260732H82.5632C83.7343 0.000260732 84.5248 1.19641 84.0658 2.27375L76.8824 19.132Z" fill="#FFA274"/>
</g>
<path d="M90.84 16.88C91.912 16.88 92.904 17.032 93.816 17.336C94.728 17.64 95.512 18.096 96.168 18.704C96.84 19.296 97.36 20.048 97.728 20.96C98.112 21.856 98.304 22.904 98.304 24.104C98.304 25.56 98.08 26.792 97.632 27.8C97.184 28.808 96.576 29.624 95.808 30.248C95.056 30.872 94.176 31.32 93.168 31.592C92.176 31.864 91.12 32 90 32H85.92V16.88H90.84ZM88.128 30.176H89.784C90.552 30.176 91.304 30.096 92.04 29.936C92.776 29.76 93.424 29.448 93.984 29C94.56 28.536 95.024 27.912 95.376 27.128C95.728 26.344 95.904 25.336 95.904 24.104C95.904 23.24 95.776 22.472 95.52 21.8C95.264 21.128 94.896 20.568 94.416 20.12C93.936 19.656 93.352 19.304 92.664 19.064C91.992 18.824 91.24 18.704 90.408 18.704H88.128V30.176ZM110.63 26.6H102.542V26.696C102.542 27.944 102.878 28.904 103.55 29.576C104.238 30.248 105.166 30.584 106.334 30.584C106.942 30.584 107.478 30.536 107.942 30.44C108.422 30.344 108.942 30.184 109.502 29.96L109.934 31.52C109.47 31.728 108.918 31.896 108.278 32.024C107.654 32.152 106.982 32.216 106.262 32.216C105.446 32.216 104.678 32.104 103.958 31.88C103.254 31.656 102.63 31.312 102.086 30.848C101.542 30.368 101.11 29.76 100.79 29.024C100.486 28.288 100.334 27.408 100.334 26.384C100.334 25.504 100.462 24.704 100.718 23.984C100.99 23.264 101.366 22.656 101.846 22.16C102.326 21.648 102.902 21.256 103.574 20.984C104.262 20.696 105.03 20.552 105.878 20.552C106.598 20.552 107.246 20.672 107.822 20.912C108.414 21.152 108.918 21.488 109.334 21.92C109.75 22.352 110.07 22.872 110.294 23.48C110.518 24.088 110.63 24.76 110.63 25.496V26.6ZM108.446 25.088C108.446 24.672 108.39 24.288 108.278 23.936C108.182 23.568 108.022 23.248 107.798 22.976C107.59 22.704 107.318 22.488 106.982 22.328C106.646 22.168 106.238 22.088 105.758 22.088C104.878 22.088 104.158 22.368 103.598 22.928C103.054 23.488 102.718 24.224 102.59 25.136L108.446 25.088ZM113.22 32V14.96H115.284V32H113.22ZM126.215 20.72H128.327V32H126.671L126.383 30.584H126.287C125.871 31.048 125.351 31.44 124.727 31.76C124.119 32.064 123.407 32.216 122.591 32.216C121.423 32.216 120.471 31.888 119.735 31.232C119.015 30.56 118.655 29.552 118.655 28.208V20.72H120.767V27.944C120.767 28.424 120.823 28.832 120.935 29.168C121.063 29.504 121.223 29.776 121.415 29.984C121.623 30.176 121.863 30.32 122.135 30.416C122.407 30.496 122.703 30.536 123.023 30.536C123.663 30.536 124.239 30.4 124.751 30.128C125.263 29.856 125.751 29.48 126.215 29V20.72ZM136.537 26.288L140.497 32H138.097L136.153 29.168L135.265 27.704L134.449 29.144L132.577 32H130.225L134.137 26.288L130.417 20.72H132.793L134.569 23.48L135.433 24.92L136.273 23.48L137.929 20.72H140.233L136.537 26.288Z" fill="white"/>
<defs>
<filter id="filter0_dddd_6122_1301" x="0.358352" y="25.6602" width="60.1993" height="65.128" filterUnits="userSpaceOnUse" color-interpolation-filters="sRGB">
<feFlood flood-opacity="0" result="BackgroundImageFix"/>
<feColorMatrix in="SourceAlpha" type="matrix" values="0 0 0 0 0 0 0 0 0 0 0 0 0 0 0 0 0 0 127 0" result="hardAlpha"/>
<feOffset dy="0.726866"/>
<feGaussianBlur stdDeviation="0.290747"/>
<feColorMatrix type="matrix" values="0 0 0 0 0 0 0 0 0 0 0 0 0 0 0 0 0 0 0.0243888 0"/>
<feBlend mode="normal" in2="BackgroundImageFix" result="effect1_dropShadow_6122_1301"/>
<feColorMatrix in="SourceAlpha" type="matrix" values="0 0 0 0 0 0 0 0 0 0 0 0 0 0 0 0 0 0 127 0" result="hardAlpha"/>
<feOffset dy="2.00969"/>
<feGaussianBlur stdDeviation="0.803877"/>
<feColorMatrix type="matrix" values="0 0 0 0 0 0 0 0 0 0 0 0 0 0 0 0 0 0 0.035 0"/>
<feBlend mode="normal" in2="effect1_dropShadow_6122_1301" result="effect2_dropShadow_6122_1301"/>
<feColorMatrix in="SourceAlpha" type="matrix" values="0 0 0 0 0 0 0 0 0 0 0 0 0 0 0 0 0 0 127 0" result="hardAlpha"/>
<feOffset dy="4.83856"/>
<feGaussianBlur stdDeviation="1.93543"/>
<feColorMatrix type="matrix" values="0 0 0 0 0 0 0 0 0 0 0 0 0 0 0 0 0 0 0.0456112 0"/>
<feBlend mode="normal" in2="effect2_dropShadow_6122_1301" result="effect3_dropShadow_6122_1301"/>
<feColorMatrix in="SourceAlpha" type="matrix" values="0 0 0 0 0 0 0 0 0 0 0 0 0 0 0 0 0 0 127 0" result="hardAlpha"/>
<feOffset dy="16.0499"/>
<feGaussianBlur stdDeviation="6.41995"/>
<feColorMatrix type="matrix" values="0 0 0 0 0 0 0 0 0 0 0 0 0 0 0 0 0 0 0.07 0"/>
<feBlend mode="normal" in2="effect3_dropShadow_6122_1301" result="effect4_dropShadow_6122_1301"/>
<feBlend mode="normal" in="SourceGraphic" in2="effect4_dropShadow_6122_1301" result="shape"/>
</filter>
<filter id="filter1_dddd_6122_1301" x="0.266555" y="24.6523" width="87.878" height="49.0148" filterUnits="userSpaceOnUse" color-interpolation-filters="sRGB">
<feFlood flood-opacity="0" result="BackgroundImageFix"/>
<feColorMatrix in="SourceAlpha" type="matrix" values="0 0 0 0 0 0 0 0 0 0 0 0 0 0 0 0 0 0 127 0" result="hardAlpha"/>
<feOffset dy="0.726866"/>
<feGaussianBlur stdDeviation="0.290747"/>
<feColorMatrix type="matrix" values="0 0 0 0 0 0 0 0 0 0 0 0 0 0 0 0 0 0 0.0243888 0"/>
<feBlend mode="normal" in2="BackgroundImageFix" result="effect1_dropShadow_6122_1301"/>
<feColorMatrix in="SourceAlpha" type="matrix" values="0 0 0 0 0 0 0 0 0 0 0 0 0 0 0 0 0 0 127 0" result="hardAlpha"/>
<feOffset dy="2.00969"/>
<feGaussianBlur stdDeviation="0.803877"/>
<feColorMatrix type="matrix" values="0 0 0 0 0 0 0 0 0 0 0 0 0 0 0 0 0 0 0.035 0"/>
<feBlend mode="normal" in2="effect1_dropShadow_6122_1301" result="effect2_dropShadow_6122_1301"/>
<feColorMatrix in="SourceAlpha" type="matrix" values="0 0 0 0 0 0 0 0 0 0 0 0 0 0 0 0 0 0 127 0" result="hardAlpha"/>
<feOffset dy="4.83856"/>
<feGaussianBlur stdDeviation="1.93543"/>
<feColorMatrix type="matrix" values="0 0 0 0 0 0 0 0 0 0 0 0 0 0 0 0 0 0 0.0456112 0"/>
<feBlend mode="normal" in2="effect2_dropShadow_6122_1301" result="effect3_dropShadow_6122_1301"/>
<feColorMatrix in="SourceAlpha" type="matrix" values="0 0 0 0 0 0 0 0 0 0 0 0 0 0 0 0 0 0 127 0" result="hardAlpha"/>
<feOffset dy="16.0499"/>
<feGaussianBlur stdDeviation="6.41995"/>
<feColorMatrix type="matrix" values="0 0 0 0 0 0 0 0 0 0 0 0 0 0 0 0 0 0 0.07 0"/>
<feBlend mode="normal" in2="effect3_dropShadow_6122_1301" result="effect4_dropShadow_6122_1301"/>
<feBlend mode="normal" in="SourceGraphic" in2="effect4_dropShadow_6122_1301" result="shape"/>
</filter>
<filter id="filter2_dddd_6122_1301" x="9.16011" y="0" width="87.878" height="49.0148" filterUnits="userSpaceOnUse" color-interpolation-filters="sRGB">
<feFlood flood-opacity="0" result="BackgroundImageFix"/>
<feColorMatrix in="SourceAlpha" type="matrix" values="0 0 0 0 0 0 0 0 0 0 0 0 0 0 0 0 0 0 127 0" result="hardAlpha"/>
<feOffset dy="0.726866"/>
<feGaussianBlur stdDeviation="0.290747"/>
<feColorMatrix type="matrix" values="0 0 0 0 0 0 0 0 0 0 0 0 0 0 0 0 0 0 0.0243888 0"/>
<feBlend mode="normal" in2="BackgroundImageFix" result="effect1_dropShadow_6122_1301"/>
<feColorMatrix in="SourceAlpha" type="matrix" values="0 0 0 0 0 0 0 0 0 0 0 0 0 0 0 0 0 0 127 0" result="hardAlpha"/>
<feOffset dy="2.00969"/>
<feGaussianBlur stdDeviation="0.803877"/>
<feColorMatrix type="matrix" values="0 0 0 0 0 0 0 0 0 0 0 0 0 0 0 0 0 0 0.035 0"/>
<feBlend mode="normal" in2="effect1_dropShadow_6122_1301" result="effect2_dropShadow_6122_1301"/>
<feColorMatrix in="SourceAlpha" type="matrix" values="0 0 0 0 0 0 0 0 0 0 0 0 0 0 0 0 0 0 127 0" result="hardAlpha"/>
<feOffset dy="4.83856"/>
<feGaussianBlur stdDeviation="1.93543"/>
<feColorMatrix type="matrix" values="0 0 0 0 0 0 0 0 0 0 0 0 0 0 0 0 0 0 0.0456112 0"/>
<feBlend mode="normal" in2="effect2_dropShadow_6122_1301" result="effect3_dropShadow_6122_1301"/>
<feColorMatrix in="SourceAlpha" type="matrix" values="0 0 0 0 0 0 0 0 0 0 0 0 0 0 0 0 0 0 127 0" result="hardAlpha"/>
<feOffset dy="16.0499"/>
<feGaussianBlur stdDeviation="6.41995"/>
<feColorMatrix type="matrix" values="0 0 0 0 0 0 0 0 0 0 0 0 0 0 0 0 0 0 0.07 0"/>
<feBlend mode="normal" in2="effect3_dropShadow_6122_1301" result="effect4_dropShadow_6122_1301"/>
<feBlend mode="normal" in="SourceGraphic" in2="effect4_dropShadow_6122_1301" result="shape"/>
</filter>
<linearGradient id="paint0_linear_6122_1301" x1="39.2972" y1="60.9894" x2="37.4861" y2="30.021" gradientUnits="userSpaceOnUse">
<stop stop-color="#FDFDFD"/>
<stop offset="1" stop-color="#FDFDFD" stop-opacity="0"/>
</linearGradient>
</defs>
</svg>
